<svg xmlns:xlink="http://www.w3.org/1999/xlink" xmlns="http://www.w3.org/2000/svg" class="railroad-diagram" width="581" height="72" viewBox="0 0 581 72">
<style>
svg.railroad-diagram {
  background-color: hsl(30,20%,95%);
}
svg.railroad-diagram path {
  stroke-width: 3;
  stroke: black;
  fill: rgba(0,0,0,0);
}
svg.railroad-diagram text {
  font: bold 14px monospace;
  text-anchor: middle;
}
svg.railroad-diagram text.label {
  text-anchor: start;
}
svg.railroad-diagram text.comment {
  font: italic 12px monospace;
}
svg.railroad-diagram rect {
  stroke-width: 3;
  stroke: black;
  fill: hsl(120,100%,90%);
}
svg.railroad-diagram a text {
  fill: #2563eb;
}
svg.railroad-diagram a:hover rect {
  fill: hsl(210,100%,90%);
}
</style>

<g transform="translate(.5 .5)">
<path d="M 20 31 v 20 m 10 -20 v 20 m -10 -10 h 20.5"></path>
<g>
<path d="M40 41h0"></path>
<path d="M540 41h0"></path>
<g>
<path d="M40 41h0"></path>
<path d="M140 41h0"></path>
<path d="M40 41a10 10 0 0 0 10 -10v0a10 10 0 0 1 10 -10"></path>
<g>
<path d="M60 21h60"></path>
</g>
<path d="M120 21a10 10 0 0 1 10 10v0a10 10 0 0 0 10 10"></path>
<path d="M40 41h20"></path>
<g>
<path d="M60 41h0"></path>
<path d="M120 41h0"></path>
<rect x="60" y="30" width="60" height="22" rx="10" ry="10"></rect>
<text x="90" y="45">INNER</text>
</g>
<path d="M120 41h20"></path>
</g>
<path d="M140 41h10"></path>
<g>
<path d="M150 41h0"></path>
<path d="M202 41h0"></path>
<rect x="150" y="30" width="52" height="22" rx="10" ry="10"></rect>
<text x="176" y="45">JOIN</text>
</g>
<path d="M202 41h10"></path>
<path d="M212 41h10"></path>
<g>
<path d="M222 41h0"></path>
<path d="M322 41h0"></path>
<rect x="222" y="30" width="100" height="22"></rect>
<text x="272" y="45">FromSource</text>
</g>
<path d="M322 41h10"></path>
<g>
<path d="M332 41h0"></path>
<path d="M540 41h0"></path>
<path d="M332 41a10 10 0 0 0 10 -10v0a10 10 0 0 1 10 -10"></path>
<g>
<path d="M352 21h168"></path>
</g>
<path d="M520 21a10 10 0 0 1 10 10v0a10 10 0 0 0 10 10"></path>
<path d="M332 41h20"></path>
<g>
<path d="M352 41h0"></path>
<path d="M520 41h0"></path>
<path d="M352 41h10"></path>
<g>
<path d="M362 41h0"></path>
<path d="M398 41h0"></path>
<rect x="362" y="30" width="36" height="22" rx="10" ry="10"></rect>
<text x="380" y="45">ON</text>
</g>
<path d="M398 41h10"></path>
<path d="M408 41h10"></path>
<g>
<path d="M418 41h0"></path>
<path d="M510 41h0"></path>
<rect x="418" y="30" width="92" height="22"></rect>
<text x="464" y="45">WhereExpr</text>
</g>
<path d="M510 41h10"></path>
</g>
<path d="M520 41h20"></path>
</g>
</g>
<path d="M 540 41 h 20 m -10 -10 v 20 m 10 -20 v 20"></path>
</g>
</svg>
