<svg xmlns:xlink="http://www.w3.org/1999/xlink" xmlns="http://www.w3.org/2000/svg" class="railroad-diagram" width="457" height="132" viewBox="0 0 457 132">
<style>
svg.railroad-diagram {
  background-color: hsl(30,20%,95%);
}
svg.railroad-diagram path {
  stroke-width: 3;
  stroke: black;
  fill: rgba(0,0,0,0);
}
svg.railroad-diagram text {
  font: bold 14px monospace;
  text-anchor: middle;
}
svg.railroad-diagram text.label {
  text-anchor: start;
}
svg.railroad-diagram text.comment {
  font: italic 12px monospace;
}
svg.railroad-diagram rect {
  stroke-width: 3;
  stroke: black;
  fill: hsl(120,100%,90%);
}
svg.railroad-diagram a text {
  fill: #2563eb;
}
svg.railroad-diagram a:hover rect {
  fill: hsl(210,100%,90%);
}
</style>

<g transform="translate(.5 .5)">
<path d="M 20 21 v 20 m 10 -20 v 20 m -10 -10 h 20.5"></path>
<g>
<path d="M40 31h0"></path>
<path d="M416 31h0"></path>
<path d="M40 31h20"></path>
<g>
<path d="M60 31h154"></path>
<path d="M242 31h154"></path>
<rect x="214" y="20" width="28" height="22" rx="10" ry="10"></rect>
<text x="228" y="35">&#42;</text>
</g>
<path d="M396 31h20"></path>
<path d="M40 31a10 10 0 0 1 10 10v10a10 10 0 0 0 10 10"></path>
<g>
<path d="M60 61h64"></path>
<path d="M332 61h64"></path>
<path d="M124 61h10"></path>
<g>
<path d="M134 61h0"></path>
<path d="M226 61h0"></path>
<rect x="134" y="50" width="92" height="22"></rect>
<text x="180" y="65">Reference</text>
</g>
<path d="M226 61h10"></path>
<path d="M236 61h10"></path>
<g>
<path d="M246 61h0"></path>
<path d="M274 61h0"></path>
<rect x="246" y="50" width="28" height="22" rx="10" ry="10"></rect>
<text x="260" y="65">.</text>
</g>
<path d="M274 61h10"></path>
<path d="M284 61h10"></path>
<g>
<path d="M294 61h0"></path>
<path d="M322 61h0"></path>
<rect x="294" y="50" width="28" height="22" rx="10" ry="10"></rect>
<text x="308" y="65">&#42;</text>
</g>
<path d="M322 61h10"></path>
</g>
<path d="M396 61a10 10 0 0 0 10 -10v-10a10 10 0 0 1 10 -10"></path>
<path d="M40 31a10 10 0 0 1 10 10v50a10 10 0 0 0 10 10"></path>
<g>
<path d="M60 101h0"></path>
<path d="M396 101h0"></path>
<path d="M60 101h10"></path>
<g>
<path d="M70 101h0"></path>
<path d="M170 101h0"></path>
<rect x="70" y="90" width="100" height="22"></rect>
<text x="120" y="105">ScalarExpr</text>
</g>
<path d="M170 101h10"></path>
<g>
<path d="M180 101h0"></path>
<path d="M396 101h0"></path>
<path d="M180 101a10 10 0 0 0 10 -10v0a10 10 0 0 1 10 -10"></path>
<g>
<path d="M200 81h176"></path>
</g>
<path d="M376 81a10 10 0 0 1 10 10v0a10 10 0 0 0 10 10"></path>
<path d="M180 101h20"></path>
<g>
<path d="M200 101h0"></path>
<path d="M376 101h0"></path>
<path d="M200 101h10"></path>
<g>
<path d="M210 101h0"></path>
<path d="M246 101h0"></path>
<rect x="210" y="90" width="36" height="22" rx="10" ry="10"></rect>
<text x="228" y="105">AS</text>
</g>
<path d="M246 101h10"></path>
<path d="M256 101h10"></path>
<g>
<path d="M266 101h0"></path>
<path d="M366 101h0"></path>
<rect x="266" y="90" width="100" height="22"></rect>
<text x="316" y="105">Identifier</text>
</g>
<path d="M366 101h10"></path>
</g>
<path d="M376 101h20"></path>
</g>
</g>
<path d="M396 101a10 10 0 0 0 10 -10v-50a10 10 0 0 1 10 -10"></path>
</g>
<path d="M 416 31 h 20 m -10 -10 v 20 m 10 -20 v 20"></path>
</g>
</svg>
