<svg xmlns:xlink="http://www.w3.org/1999/xlink" xmlns="http://www.w3.org/2000/svg" class="railroad-diagram" width="797" height="102" viewBox="0 0 797 102">
<style>
svg.railroad-diagram {
  background-color: hsl(30,20%,95%);
}
svg.railroad-diagram path {
  stroke-width: 3;
  stroke: black;
  fill: rgba(0,0,0,0);
}
svg.railroad-diagram text {
  font: bold 14px monospace;
  text-anchor: middle;
}
svg.railroad-diagram text.label {
  text-anchor: start;
}
svg.railroad-diagram text.comment {
  font: italic 12px monospace;
}
svg.railroad-diagram rect {
  stroke-width: 3;
  stroke: black;
  fill: hsl(120,100%,90%);
}
svg.railroad-diagram a text {
  fill: #2563eb;
}
svg.railroad-diagram a:hover rect {
  fill: hsl(210,100%,90%);
}
</style>

<g transform="translate(.5 .5)">
<path d="M 20 31 v 20 m 10 -20 v 20 m -10 -10 h 20.5"></path>
<g>
<path d="M40 41h0"></path>
<path d="M756 41h0"></path>
<path d="M40 41h10"></path>
<g>
<path d="M50 41h0"></path>
<path d="M78 41h0"></path>
<rect x="50" y="30" width="28" height="22" rx="10" ry="10"></rect>
<text x="64" y="45">(</text>
</g>
<path d="M78 41h10"></path>
<path d="M88 41h10"></path>
<g>
<path d="M98 41h0"></path>
<path d="M246 41h0"></path>
<rect x="98" y="30" width="148" height="22"></rect>
<text x="172" y="45">CompilerSubquery</text>
</g>
<path d="M246 41h10"></path>
<path d="M256 41h10"></path>
<g>
<path d="M266 41h0"></path>
<path d="M294 41h0"></path>
<rect x="266" y="30" width="28" height="22" rx="10" ry="10"></rect>
<text x="280" y="45">)</text>
</g>
<path d="M294 41h10"></path>
<g>
<path d="M304 41h0"></path>
<path d="M480 41h0"></path>
<path d="M304 41h10"></path>
<g>
<path d="M314 41h0"></path>
<path d="M350 41h0"></path>
<rect x="314" y="30" width="36" height="22" rx="10" ry="10"></rect>
<text x="332" y="45">AS</text>
</g>
<path d="M350 41h10"></path>
<path d="M360 41h10"></path>
<g>
<path d="M370 41h0"></path>
<path d="M470 41h0"></path>
<rect x="370" y="30" width="100" height="22"></rect>
<text x="420" y="45">Identifier</text>
</g>
<path d="M470 41h10"></path>
</g>
<g>
<path d="M480 41h0"></path>
<path d="M756 41h0"></path>
<path d="M480 41a10 10 0 0 0 10 -10v0a10 10 0 0 1 10 -10"></path>
<g>
<path d="M500 21h236"></path>
</g>
<path d="M736 21a10 10 0 0 1 10 10v0a10 10 0 0 0 10 10"></path>
<path d="M480 41h20"></path>
<g>
<path d="M500 41h0"></path>
<path d="M736 41h0"></path>
<path d="M500 41h10"></path>
<g>
<path d="M510 41h0"></path>
<path d="M538 41h0"></path>
<rect x="510" y="30" width="28" height="22" rx="10" ry="10"></rect>
<text x="524" y="45">(</text>
</g>
<path d="M538 41h10"></path>
<path d="M548 41h10"></path>
<g>
<path d="M558 41h0"></path>
<path d="M678 41h0"></path>
<path d="M558 41h10"></path>
<g>
<path d="M568 41h0"></path>
<path d="M668 41h0"></path>
<rect x="568" y="30" width="100" height="22"></rect>
<text x="618" y="45">Identifier</text>
</g>
<path d="M668 41h10"></path>
<path d="M568 41a10 10 0 0 0 -10 10v10a10 10 0 0 0 10 10"></path>
<g>
<path d="M568 71h36"></path>
<path d="M632 71h36"></path>
<rect x="604" y="60" width="28" height="22" rx="10" ry="10"></rect>
<text x="618" y="75">,</text>
</g>
<path d="M668 71a10 10 0 0 0 10 -10v-10a10 10 0 0 0 -10 -10"></path>
</g>
<path d="M678 41h10"></path>
<path d="M688 41h10"></path>
<g>
<path d="M698 41h0"></path>
<path d="M726 41h0"></path>
<rect x="698" y="30" width="28" height="22" rx="10" ry="10"></rect>
<text x="712" y="45">)</text>
</g>
<path d="M726 41h10"></path>
</g>
<path d="M736 41h20"></path>
</g>
</g>
<path d="M 756 41 h 20 m -10 -10 v 20 m 10 -20 v 20"></path>
</g>
</svg>
