<svg xmlns:xlink="http://www.w3.org/1999/xlink" xmlns="http://www.w3.org/2000/svg" class="railroad-diagram" width="605" height="232" viewBox="0 0 605 232">
<style>
svg.railroad-diagram {
  background-color: hsl(30,20%,95%);
}
svg.railroad-diagram path {
  stroke-width: 3;
  stroke: black;
  fill: rgba(0,0,0,0);
}
svg.railroad-diagram text {
  font: bold 14px monospace;
  text-anchor: middle;
}
svg.railroad-diagram text.label {
  text-anchor: start;
}
svg.railroad-diagram text.comment {
  font: italic 12px monospace;
}
svg.railroad-diagram rect {
  stroke-width: 3;
  stroke: black;
  fill: hsl(120,100%,90%);
}
svg.railroad-diagram a text {
  fill: #2563eb;
}
svg.railroad-diagram a:hover rect {
  fill: hsl(210,100%,90%);
}
</style>

<g transform="translate(.5 .5)">
<path d="M 20 21 v 20 m 10 -20 v 20 m -10 -10 h 20.5"></path>
<g>
<path d="M40 31h0"></path>
<path d="M564 31h0"></path>
<path d="M40 31h20"></path>
<g>
<path d="M60 31h158"></path>
<path d="M386 31h158"></path>
<path d="M218 31h10"></path>
<g>
<path d="M228 31h0"></path>
<path d="M256 31h0"></path>
<rect x="228" y="20" width="28" height="22" rx="10" ry="10"></rect>
<text x="242" y="35">=</text>
</g>
<path d="M256 31h10"></path>
<path d="M266 31h10"></path>
<g>
<path d="M276 31h0"></path>
<path d="M376 31h0"></path>
<rect x="276" y="20" width="100" height="22"></rect>
<text x="326" y="35">Expression</text>
</g>
<path d="M376 31h10"></path>
</g>
<path d="M544 31h20"></path>
<path d="M40 31a10 10 0 0 1 10 10v10a10 10 0 0 0 10 10"></path>
<g>
<path d="M60 61h162"></path>
<path d="M382 61h162"></path>
<path d="M222 61h10"></path>
<g>
<path d="M232 61h0"></path>
<path d="M268 61h0"></path>
<rect x="232" y="50" width="36" height="22" rx="10" ry="10"></rect>
<text x="250" y="65">IN</text>
</g>
<path d="M268 61h10"></path>
<path d="M278 61h10"></path>
<g>
<path d="M288 61h0"></path>
<path d="M372 61h0"></path>
<rect x="288" y="50" width="84" height="22"></rect>
<text x="330" y="65">InSource</text>
</g>
<path d="M372 61h10"></path>
</g>
<path d="M544 61a10 10 0 0 0 10 -10v-10a10 10 0 0 1 10 -10"></path>
<path d="M40 31a10 10 0 0 1 10 10v40a10 10 0 0 0 10 10"></path>
<g>
<path d="M60 91h130"></path>
<path d="M414 91h130"></path>
<path d="M190 91h10"></path>
<g>
<path d="M200 91h0"></path>
<path d="M244 91h0"></path>
<rect x="200" y="80" width="44" height="22" rx="10" ry="10"></rect>
<text x="222" y="95">NOT</text>
</g>
<path d="M244 91h10"></path>
<path d="M254 91h10"></path>
<g>
<path d="M264 91h0"></path>
<path d="M300 91h0"></path>
<rect x="264" y="80" width="36" height="22" rx="10" ry="10"></rect>
<text x="282" y="95">IN</text>
</g>
<path d="M300 91h10"></path>
<path d="M310 91h10"></path>
<g>
<path d="M320 91h0"></path>
<path d="M404 91h0"></path>
<rect x="320" y="80" width="84" height="22"></rect>
<text x="362" y="95">InSource</text>
</g>
<path d="M404 91h10"></path>
</g>
<path d="M544 91a10 10 0 0 0 10 -10v-40a10 10 0 0 1 10 -10"></path>
<path d="M40 31a10 10 0 0 1 10 10v70a10 10 0 0 0 10 10"></path>
<g>
<path d="M60 121h162"></path>
<path d="M382 121h162"></path>
<path d="M222 121h10"></path>
<g>
<path d="M232 121h0"></path>
<path d="M268 121h0"></path>
<rect x="232" y="110" width="36" height="22" rx="10" ry="10"></rect>
<text x="250" y="125">&#38;&#38;</text>
</g>
<path d="M268 121h10"></path>
<path d="M278 121h10"></path>
<g>
<path d="M288 121h0"></path>
<path d="M372 121h0"></path>
<rect x="288" y="110" width="84" height="22"></rect>
<text x="330" y="125">InSource</text>
</g>
<path d="M372 121h10"></path>
</g>
<path d="M544 121a10 10 0 0 0 10 -10v-70a10 10 0 0 1 10 -10"></path>
<path d="M40 31a10 10 0 0 1 10 10v110a10 10 0 0 0 10 10"></path>
<g>
<path d="M60 161h136"></path>
<path d="M408 161h136"></path>
<path d="M196 161h10"></path>
<g>
<path d="M206 161h0"></path>
<path d="M242 161h0"></path>
<rect x="206" y="150" width="36" height="22" rx="10" ry="10"></rect>
<text x="224" y="165">IS</text>
</g>
<path d="M242 161h10"></path>
<g>
<path d="M252 161h0"></path>
<path d="M336 161h0"></path>
<path d="M252 161a10 10 0 0 0 10 -10v0a10 10 0 0 1 10 -10"></path>
<g>
<path d="M272 141h44"></path>
</g>
<path d="M316 141a10 10 0 0 1 10 10v0a10 10 0 0 0 10 10"></path>
<path d="M252 161h20"></path>
<g>
<path d="M272 161h0"></path>
<path d="M316 161h0"></path>
<rect x="272" y="150" width="44" height="22" rx="10" ry="10"></rect>
<text x="294" y="165">NOT</text>
</g>
<path d="M316 161h20"></path>
</g>
<path d="M336 161h10"></path>
<g>
<path d="M346 161h0"></path>
<path d="M398 161h0"></path>
<rect x="346" y="150" width="52" height="22" rx="10" ry="10"></rect>
<text x="372" y="165">NULL</text>
</g>
<path d="M398 161h10"></path>
</g>
<path d="M544 161a10 10 0 0 0 10 -10v-110a10 10 0 0 1 10 -10"></path>
<path d="M40 31a10 10 0 0 1 10 10v150a10 10 0 0 0 10 10"></path>
<g>
<path d="M60 201h0"></path>
<path d="M544 201h0"></path>
<g>
<path d="M60 201h0"></path>
<path d="M144 201h0"></path>
<path d="M60 201a10 10 0 0 0 10 -10v0a10 10 0 0 1 10 -10"></path>
<g>
<path d="M80 181h44"></path>
</g>
<path d="M124 181a10 10 0 0 1 10 10v0a10 10 0 0 0 10 10"></path>
<path d="M60 201h20"></path>
<g>
<path d="M80 201h0"></path>
<path d="M124 201h0"></path>
<rect x="80" y="190" width="44" height="22" rx="10" ry="10"></rect>
<text x="102" y="205">NOT</text>
</g>
<path d="M124 201h20"></path>
</g>
<path d="M144 201h10"></path>
<g>
<path d="M154 201h0"></path>
<path d="M230 201h0"></path>
<rect x="154" y="190" width="76" height="22" rx="10" ry="10"></rect>
<text x="192" y="205">BETWEEN</text>
</g>
<path d="M230 201h10"></path>
<path d="M240 201h10"></path>
<g>
<path d="M250 201h0"></path>
<path d="M350 201h0"></path>
<rect x="250" y="190" width="100" height="22"></rect>
<text x="300" y="205">Expression</text>
</g>
<path d="M350 201h10"></path>
<path d="M360 201h10"></path>
<g>
<path d="M370 201h0"></path>
<path d="M414 201h0"></path>
<rect x="370" y="190" width="44" height="22" rx="10" ry="10"></rect>
<text x="392" y="205">AND</text>
</g>
<path d="M414 201h10"></path>
<path d="M424 201h10"></path>
<g>
<path d="M434 201h0"></path>
<path d="M534 201h0"></path>
<rect x="434" y="190" width="100" height="22"></rect>
<text x="484" y="205">Expression</text>
</g>
<path d="M534 201h10"></path>
</g>
<path d="M544 201a10 10 0 0 0 10 -10v-150a10 10 0 0 1 10 -10"></path>
</g>
<path d="M 564 31 h 20 m -10 -10 v 20 m 10 -20 v 20"></path>
</g>
</svg>
