<svg xmlns:xlink="http://www.w3.org/1999/xlink" xmlns="http://www.w3.org/2000/svg" class="railroad-diagram" width="457" height="102" viewBox="0 0 457 102">
<style>
svg.railroad-diagram {
  background-color: hsl(30,20%,95%);
}
svg.railroad-diagram path {
  stroke-width: 3;
  stroke: black;
  fill: rgba(0,0,0,0);
}
svg.railroad-diagram text {
  font: bold 14px monospace;
  text-anchor: middle;
}
svg.railroad-diagram text.label {
  text-anchor: start;
}
svg.railroad-diagram text.comment {
  font: italic 12px monospace;
}
svg.railroad-diagram rect {
  stroke-width: 3;
  stroke: black;
  fill: hsl(120,100%,90%);
}
svg.railroad-diagram a text {
  fill: #2563eb;
}
svg.railroad-diagram a:hover rect {
  fill: hsl(210,100%,90%);
}
</style>

<g transform="translate(.5 .5)">
<path d="M 20 31 v 20 m 10 -20 v 20 m -10 -10 h 20.5"></path>
<g>
<path d="M40 41h0"></path>
<path d="M416 41h0"></path>
<path d="M40 41h10"></path>
<g>
<path d="M50 41h0"></path>
<path d="M150 41h0"></path>
<rect x="50" y="30" width="100" height="22"></rect>
<text x="100" y="45">Identifier</text>
</g>
<path d="M150 41h10"></path>
<path d="M160 41h10"></path>
<g>
<path d="M170 41h0"></path>
<path d="M198 41h0"></path>
<rect x="170" y="30" width="28" height="22" rx="10" ry="10"></rect>
<text x="184" y="45">(</text>
</g>
<path d="M198 41h10"></path>
<g>
<path d="M208 41h0"></path>
<path d="M368 41h0"></path>
<path d="M208 41a10 10 0 0 0 10 -10v0a10 10 0 0 1 10 -10"></path>
<g>
<path d="M228 21h120"></path>
</g>
<path d="M348 21a10 10 0 0 1 10 10v0a10 10 0 0 0 10 10"></path>
<path d="M208 41h20"></path>
<g>
<path d="M228 41h0"></path>
<path d="M348 41h0"></path>
<path d="M228 41h10"></path>
<g>
<path d="M238 41h0"></path>
<path d="M338 41h0"></path>
<rect x="238" y="30" width="100" height="22"></rect>
<text x="288" y="45">ScalarExpr</text>
</g>
<path d="M338 41h10"></path>
<path d="M238 41a10 10 0 0 0 -10 10v10a10 10 0 0 0 10 10"></path>
<g>
<path d="M238 71h36"></path>
<path d="M302 71h36"></path>
<rect x="274" y="60" width="28" height="22" rx="10" ry="10"></rect>
<text x="288" y="75">,</text>
</g>
<path d="M338 71a10 10 0 0 0 10 -10v-10a10 10 0 0 0 -10 -10"></path>
</g>
<path d="M348 41h20"></path>
</g>
<path d="M368 41h10"></path>
<g>
<path d="M378 41h0"></path>
<path d="M406 41h0"></path>
<rect x="378" y="30" width="28" height="22" rx="10" ry="10"></rect>
<text x="392" y="45">)</text>
</g>
<path d="M406 41h10"></path>
</g>
<path d="M 416 41 h 20 m -10 -10 v 20 m 10 -20 v 20"></path>
</g>
</svg>
