<svg xmlns:xlink="http://www.w3.org/1999/xlink" xmlns="http://www.w3.org/2000/svg" class="railroad-diagram" width="1017" height="110" viewBox="0 0 1017 110">
<style>
svg.railroad-diagram {
  background-color: hsl(30,20%,95%);
}
svg.railroad-diagram path {
  stroke-width: 3;
  stroke: black;
  fill: rgba(0,0,0,0);
}
svg.railroad-diagram text {
  font: bold 14px monospace;
  text-anchor: middle;
}
svg.railroad-diagram text.label {
  text-anchor: start;
}
svg.railroad-diagram text.comment {
  font: italic 12px monospace;
}
svg.railroad-diagram rect {
  stroke-width: 3;
  stroke: black;
  fill: hsl(120,100%,90%);
}
svg.railroad-diagram a text {
  fill: #2563eb;
}
svg.railroad-diagram a:hover rect {
  fill: hsl(210,100%,90%);
}
</style>

<g transform="translate(.5 .5)">
<path d="M 20 31 v 20 m 10 -20 v 20 m -10 -10 h 20.5"></path>
<g>
<path d="M40 41h0"></path>
<path d="M976 41h0"></path>
<path d="M40 41h10"></path>
<g>
<path d="M50 41h0"></path>
<path d="M118 41h0"></path>
<rect x="50" y="30" width="68" height="22" rx="10" ry="10"></rect>
<text x="84" y="45">SELECT</text>
</g>
<path d="M118 41h10"></path>
<path d="M128 41h10"></path>
<g>
<path d="M138 41h0"></path>
<path d="M258 41h0"></path>
<path d="M138 41h10"></path>
<g>
<path d="M148 41h0"></path>
<path d="M248 41h0"></path>
<rect x="148" y="30" width="100" height="22"></rect>
<text x="198" y="45">SelectItem</text>
</g>
<path d="M248 41h10"></path>
<path d="M148 41a10 10 0 0 0 -10 10v10a10 10 0 0 0 10 10"></path>
<g>
<path d="M148 71h36"></path>
<path d="M212 71h36"></path>
<rect x="184" y="60" width="28" height="22" rx="10" ry="10"></rect>
<text x="198" y="75">,</text>
</g>
<path d="M248 71a10 10 0 0 0 10 -10v-10a10 10 0 0 0 -10 -10"></path>
</g>
<path d="M258 41h10"></path>
<path d="M268 41h10"></path>
<g>
<path d="M278 41h0"></path>
<path d="M330 41h0"></path>
<rect x="278" y="30" width="52" height="22" rx="10" ry="10"></rect>
<text x="304" y="45">FROM</text>
</g>
<path d="M330 41h10"></path>
<path d="M340 41h10"></path>
<g>
<path d="M350 41h0"></path>
<path d="M450 41h0"></path>
<rect x="350" y="30" width="100" height="22"></rect>
<text x="400" y="45">FromSource</text>
</g>
<path d="M450 41h10"></path>
<g>
<path d="M460 41h0"></path>
<path d="M728 41h0"></path>
<path d="M460 41a10 10 0 0 0 10 -10v0a10 10 0 0 1 10 -10"></path>
<g>
<path d="M480 21h228"></path>
</g>
<path d="M708 21a10 10 0 0 1 10 10v0a10 10 0 0 0 10 10"></path>
<path d="M460 41h20"></path>
<g>
<path d="M480 41h0"></path>
<path d="M708 41h0"></path>
<path d="M480 41h10"></path>
<g>
<path d="M490 41h0"></path>
<path d="M698 41h0"></path>
<path d="M490 41h20"></path>
<g>
<path d="M510 41h0"></path>
<path d="M678 41h0"></path>
<path d="M510 41h10"></path>
<g>
<path d="M520 41h0"></path>
<path d="M548 41h0"></path>
<rect x="520" y="30" width="28" height="22" rx="10" ry="10"></rect>
<text x="534" y="45">,</text>
</g>
<path d="M548 41h10"></path>
<path d="M558 41h10"></path>
<g>
<path d="M568 41h0"></path>
<path d="M668 41h0"></path>
<rect x="568" y="30" width="100" height="22"></rect>
<text x="618" y="45">FromSource</text>
</g>
<path d="M668 41h10"></path>
</g>
<path d="M678 41h20"></path>
<path d="M490 41a10 10 0 0 1 10 10v10a10 10 0 0 0 10 10"></path>
<g>
<path d="M510 71h34"></path>
<path d="M644 71h34"></path>
<rect x="544" y="60" width="100" height="22"></rect>
<text x="594" y="75">JoinClause</text>
</g>
<path d="M678 71a10 10 0 0 0 10 -10v-10a10 10 0 0 1 10 -10"></path>
</g>
<path d="M698 41h10"></path>
<path d="M490 41a10 10 0 0 0 -10 10v29a10 10 0 0 0 10 10"></path>
<g>
<path d="M490 90h208"></path>
</g>
<path d="M698 90a10 10 0 0 0 10 -10v-29a10 10 0 0 0 -10 -10"></path>
</g>
<path d="M708 41h20"></path>
</g>
<g>
<path d="M728 41h0"></path>
<path d="M976 41h0"></path>
<path d="M728 41a10 10 0 0 0 10 -10v0a10 10 0 0 1 10 -10"></path>
<g>
<path d="M748 21h208"></path>
</g>
<path d="M956 21a10 10 0 0 1 10 10v0a10 10 0 0 0 10 10"></path>
<path d="M728 41h20"></path>
<g>
<path d="M748 41h0"></path>
<path d="M956 41h0"></path>
<path d="M748 41h10"></path>
<g>
<path d="M758 41h0"></path>
<path d="M818 41h0"></path>
<rect x="758" y="30" width="60" height="22" rx="10" ry="10"></rect>
<text x="788" y="45">WHERE</text>
</g>
<path d="M818 41h10"></path>
<path d="M828 41h10"></path>
<g>
<path d="M838 41h0"></path>
<path d="M946 41h0"></path>
<rect x="838" y="30" width="108" height="22"></rect>
<text x="892" y="45">WhereClause</text>
</g>
<path d="M946 41h10"></path>
</g>
<path d="M956 41h20"></path>
</g>
</g>
<path d="M 976 41 h 20 m -10 -10 v 20 m 10 -20 v 20"></path>
</g>
</svg>
