<svg xmlns:xlink="http://www.w3.org/1999/xlink" xmlns="http://www.w3.org/2000/svg" class="railroad-diagram" width="377" height="100" viewBox="0 0 377 100">
<style>
svg.railroad-diagram {
  background-color: hsl(30,20%,95%);
}
svg.railroad-diagram path {
  stroke-width: 3;
  stroke: black;
  fill: rgba(0,0,0,0);
}
svg.railroad-diagram text {
  font: bold 14px monospace;
  text-anchor: middle;
}
svg.railroad-diagram text.label {
  text-anchor: start;
}
svg.railroad-diagram text.comment {
  font: italic 12px monospace;
}
svg.railroad-diagram rect {
  stroke-width: 3;
  stroke: black;
  fill: hsl(120,100%,90%);
}
svg.railroad-diagram a text {
  fill: #2563eb;
}
svg.railroad-diagram a:hover rect {
  fill: hsl(210,100%,90%);
}
</style>

<g transform="translate(.5 .5)">
<path d="M 20 21 v 20 m 10 -20 v 20 m -10 -10 h 20.5"></path>
<path d="M40 31h10"></path>
<g>
<path d="M50 31h0"></path>
<path d="M326 31h0"></path>
<path d="M50 31h10"></path>
<g>
<path d="M60 31h0"></path>
<path d="M316 31h0"></path>
<g>
<path d="M60 31h0"></path>
<path d="M144 31h0"></path>
<path d="M60 31h20"></path>
<g>
<path d="M80 31h0"></path>
<path d="M124 31h0"></path>
<rect x="80" y="20" width="44" height="22" rx="10" ry="10"></rect>
<text x="102" y="35">->></text>
</g>
<path d="M124 31h20"></path>
<path d="M60 31a10 10 0 0 1 10 10v10a10 10 0 0 0 10 10"></path>
<g>
<path d="M80 61h4"></path>
<path d="M120 61h4"></path>
<rect x="84" y="50" width="36" height="22" rx="10" ry="10"></rect>
<text x="102" y="65">-></text>
</g>
<path d="M124 61a10 10 0 0 0 10 -10v-10a10 10 0 0 1 10 -10"></path>
</g>
<g>
<path d="M144 31h0"></path>
<path d="M316 31h0"></path>
<path d="M144 31h20"></path>
<g>
<path d="M164 31h4"></path>
<path d="M292 31h4"></path>
<rect x="168" y="20" width="124" height="22"></rect>
<text x="230" y="35">StringLiteral</text>
</g>
<path d="M296 31h20"></path>
<path d="M144 31a10 10 0 0 1 10 10v10a10 10 0 0 0 10 10"></path>
<g>
<path d="M164 61h0"></path>
<path d="M296 61h0"></path>
<rect x="164" y="50" width="132" height="22"></rect>
<text x="230" y="65">IntegerLiteral</text>
</g>
<path d="M296 61a10 10 0 0 0 10 -10v-10a10 10 0 0 1 10 -10"></path>
</g>
</g>
<path d="M316 31h10"></path>
<path d="M60 31a10 10 0 0 0 -10 10v29a10 10 0 0 0 10 10"></path>
<g>
<path d="M60 80h256"></path>
</g>
<path d="M316 80a10 10 0 0 0 10 -10v-29a10 10 0 0 0 -10 -10"></path>
</g>
<path d="M326 31h10"></path>
<path d="M 336 31 h 20 m -10 -10 v 20 m 10 -20 v 20"></path>
</g>
</svg>
