<svg xmlns:xlink="http://www.w3.org/1999/xlink" xmlns="http://www.w3.org/2000/svg" class="railroad-diagram" width="1017" height="110" viewBox="0 0 1017 110">
<style>
svg.railroad-diagram {
  background-color: hsl(30,20%,95%);
}
svg.railroad-diagram path {
  stroke-width: 3;
  stroke: black;
  fill: rgba(0,0,0,0);
}
svg.railroad-diagram text {
  font: bold 14px monospace;
  text-anchor: middle;
}
svg.railroad-diagram text.label {
  text-anchor: start;
}
svg.railroad-diagram text.comment {
  font: italic 12px monospace;
}
svg.railroad-diagram rect {
  stroke-width: 3;
  stroke: black;
  fill: hsl(120,100%,90%);
}
svg.railroad-diagram a text {
  fill: #2563eb;
}
svg.railroad-diagram a:hover rect {
  fill: hsl(210,100%,90%);
}
</style>

<g transform="translate(.5 .5)">
<path d="M 20 31 v 20 m 10 -20 v 20 m -10 -10 h 20.5"></path>
<g>
<path d="M40 41h0"></path>
<path d="M976 41h0"></path>
<path d="M40 41h10"></path>
<g>
<path d="M50 41h0"></path>
<path d="M118 41h0"></path>
<rect x="50" y="30" width="68" height="22" rx="10" ry="10"></rect>
<text x="84" y="45">SELECT</text>
</g>
<path d="M118 41h10"></path>
<path d="M128 41h10"></path>
<g>
<path d="M138 41h0"></path>
<path d="M274 41h0"></path>
<path d="M138 41h10"></path>
<g>
<path d="M148 41h0"></path>
<path d="M264 41h0"></path>
<rect x="148" y="30" width="116" height="22"></rect>
<text x="206" y="45">ResultColumn</text>
</g>
<path d="M264 41h10"></path>
<path d="M148 41a10 10 0 0 0 -10 10v10a10 10 0 0 0 10 10"></path>
<g>
<path d="M148 71h44"></path>
<path d="M220 71h44"></path>
<rect x="192" y="60" width="28" height="22" rx="10" ry="10"></rect>
<text x="206" y="75">,</text>
</g>
<path d="M264 71a10 10 0 0 0 10 -10v-10a10 10 0 0 0 -10 -10"></path>
</g>
<path d="M274 41h10"></path>
<path d="M284 41h10"></path>
<g>
<path d="M294 41h0"></path>
<path d="M346 41h0"></path>
<rect x="294" y="30" width="52" height="22" rx="10" ry="10"></rect>
<text x="320" y="45">FROM</text>
</g>
<path d="M346 41h10"></path>
<path d="M356 41h10"></path>
<g>
<path d="M366 41h0"></path>
<path d="M466 41h0"></path>
<rect x="366" y="30" width="100" height="22"></rect>
<text x="416" y="45">FromSource</text>
</g>
<path d="M466 41h10"></path>
<g>
<path d="M476 41h0"></path>
<path d="M744 41h0"></path>
<path d="M476 41a10 10 0 0 0 10 -10v0a10 10 0 0 1 10 -10"></path>
<g>
<path d="M496 21h228"></path>
</g>
<path d="M724 21a10 10 0 0 1 10 10v0a10 10 0 0 0 10 10"></path>
<path d="M476 41h20"></path>
<g>
<path d="M496 41h0"></path>
<path d="M724 41h0"></path>
<path d="M496 41h10"></path>
<g>
<path d="M506 41h0"></path>
<path d="M714 41h0"></path>
<path d="M506 41h20"></path>
<g>
<path d="M526 41h0"></path>
<path d="M694 41h0"></path>
<path d="M526 41h10"></path>
<g>
<path d="M536 41h0"></path>
<path d="M564 41h0"></path>
<rect x="536" y="30" width="28" height="22" rx="10" ry="10"></rect>
<text x="550" y="45">,</text>
</g>
<path d="M564 41h10"></path>
<path d="M574 41h10"></path>
<g>
<path d="M584 41h0"></path>
<path d="M684 41h0"></path>
<rect x="584" y="30" width="100" height="22"></rect>
<text x="634" y="45">FromSource</text>
</g>
<path d="M684 41h10"></path>
</g>
<path d="M694 41h20"></path>
<path d="M506 41a10 10 0 0 1 10 10v10a10 10 0 0 0 10 10"></path>
<g>
<path d="M526 71h34"></path>
<path d="M660 71h34"></path>
<rect x="560" y="60" width="100" height="22"></rect>
<text x="610" y="75">JoinClause</text>
</g>
<path d="M694 71a10 10 0 0 0 10 -10v-10a10 10 0 0 1 10 -10"></path>
</g>
<path d="M714 41h10"></path>
<path d="M506 41a10 10 0 0 0 -10 10v29a10 10 0 0 0 10 10"></path>
<g>
<path d="M506 90h208"></path>
</g>
<path d="M714 90a10 10 0 0 0 10 -10v-29a10 10 0 0 0 -10 -10"></path>
</g>
<path d="M724 41h20"></path>
</g>
<g>
<path d="M744 41h0"></path>
<path d="M976 41h0"></path>
<path d="M744 41a10 10 0 0 0 10 -10v0a10 10 0 0 1 10 -10"></path>
<g>
<path d="M764 21h192"></path>
</g>
<path d="M956 21a10 10 0 0 1 10 10v0a10 10 0 0 0 10 10"></path>
<path d="M744 41h20"></path>
<g>
<path d="M764 41h0"></path>
<path d="M956 41h0"></path>
<path d="M764 41h10"></path>
<g>
<path d="M774 41h0"></path>
<path d="M834 41h0"></path>
<rect x="774" y="30" width="60" height="22" rx="10" ry="10"></rect>
<text x="804" y="45">WHERE</text>
</g>
<path d="M834 41h10"></path>
<path d="M844 41h10"></path>
<g>
<path d="M854 41h0"></path>
<path d="M946 41h0"></path>
<rect x="854" y="30" width="92" height="22"></rect>
<text x="900" y="45">WhereExpr</text>
</g>
<path d="M946 41h10"></path>
</g>
<path d="M956 41h20"></path>
</g>
</g>
<path d="M 976 41 h 20 m -10 -10 v 20 m 10 -20 v 20"></path>
</g>
</svg>
