<svg xmlns:xlink="http://www.w3.org/1999/xlink" xmlns="http://www.w3.org/2000/svg" class="railroad-diagram" width="541" height="182" viewBox="0 0 541 182">
<style>
svg.railroad-diagram {
  background-color: hsl(30,20%,95%);
}
svg.railroad-diagram path {
  stroke-width: 3;
  stroke: black;
  fill: rgba(0,0,0,0);
}
svg.railroad-diagram text {
  font: bold 14px monospace;
  text-anchor: middle;
}
svg.railroad-diagram text.label {
  text-anchor: start;
}
svg.railroad-diagram text.comment {
  font: italic 12px monospace;
}
svg.railroad-diagram rect {
  stroke-width: 3;
  stroke: black;
  fill: hsl(120,100%,90%);
}
svg.railroad-diagram a text {
  fill: #2563eb;
}
svg.railroad-diagram a:hover rect {
  fill: hsl(210,100%,90%);
}
</style>

<g transform="translate(.5 .5)">
<path d="M 20 21 v 20 m 10 -20 v 20 m -10 -10 h 20.5"></path>
<g>
<path d="M40 31h0"></path>
<path d="M500 31h0"></path>
<path d="M40 31h10"></path>
<g>
<path d="M50 31h0"></path>
<path d="M102 31h0"></path>
<rect x="50" y="20" width="52" height="22" rx="10" ry="10"></rect>
<text x="76" y="35">CAST</text>
</g>
<path d="M102 31h10"></path>
<path d="M112 31h10"></path>
<g>
<path d="M122 31h0"></path>
<path d="M150 31h0"></path>
<rect x="122" y="20" width="28" height="22" rx="10" ry="10"></rect>
<text x="136" y="35">(</text>
</g>
<path d="M150 31h10"></path>
<path d="M160 31h10"></path>
<g>
<path d="M170 31h0"></path>
<path d="M270 31h0"></path>
<rect x="170" y="20" width="100" height="22"></rect>
<text x="220" y="35">ScalarExpr</text>
</g>
<path d="M270 31h10"></path>
<path d="M280 31h10"></path>
<g>
<path d="M290 31h0"></path>
<path d="M326 31h0"></path>
<rect x="290" y="20" width="36" height="22" rx="10" ry="10"></rect>
<text x="308" y="35">AS</text>
</g>
<path d="M326 31h10"></path>
<g>
<path d="M336 31h0"></path>
<path d="M452 31h0"></path>
<path d="M336 31h20"></path>
<g>
<path d="M356 31h12"></path>
<path d="M420 31h12"></path>
<rect x="368" y="20" width="52" height="22" rx="10" ry="10"></rect>
<text x="394" y="35">TEXT</text>
</g>
<path d="M432 31h20"></path>
<path d="M336 31a10 10 0 0 1 10 10v10a10 10 0 0 0 10 10"></path>
<g>
<path d="M356 61h0"></path>
<path d="M432 61h0"></path>
<rect x="356" y="50" width="76" height="22" rx="10" ry="10"></rect>
<text x="394" y="65">INTEGER</text>
</g>
<path d="M432 61a10 10 0 0 0 10 -10v-10a10 10 0 0 1 10 -10"></path>
<path d="M336 31a10 10 0 0 1 10 10v40a10 10 0 0 0 10 10"></path>
<g>
<path d="M356 91h12"></path>
<path d="M420 91h12"></path>
<rect x="368" y="80" width="52" height="22" rx="10" ry="10"></rect>
<text x="394" y="95">REAL</text>
</g>
<path d="M432 91a10 10 0 0 0 10 -10v-40a10 10 0 0 1 10 -10"></path>
<path d="M336 31a10 10 0 0 1 10 10v70a10 10 0 0 0 10 10"></path>
<g>
<path d="M356 121h0"></path>
<path d="M432 121h0"></path>
<rect x="356" y="110" width="76" height="22" rx="10" ry="10"></rect>
<text x="394" y="125">NUMERIC</text>
</g>
<path d="M432 121a10 10 0 0 0 10 -10v-70a10 10 0 0 1 10 -10"></path>
<path d="M336 31a10 10 0 0 1 10 10v100a10 10 0 0 0 10 10"></path>
<g>
<path d="M356 151h12"></path>
<path d="M420 151h12"></path>
<rect x="368" y="140" width="52" height="22" rx="10" ry="10"></rect>
<text x="394" y="155">BLOB</text>
</g>
<path d="M432 151a10 10 0 0 0 10 -10v-100a10 10 0 0 1 10 -10"></path>
</g>
<path d="M452 31h10"></path>
<g>
<path d="M462 31h0"></path>
<path d="M490 31h0"></path>
<rect x="462" y="20" width="28" height="22" rx="10" ry="10"></rect>
<text x="476" y="35">)</text>
</g>
<path d="M490 31h10"></path>
</g>
<path d="M 500 31 h 20 m -10 -10 v 20 m 10 -20 v 20"></path>
</g>
</svg>
