<svg xmlns:xlink="http://www.w3.org/1999/xlink" xmlns="http://www.w3.org/2000/svg" class="railroad-diagram" width="729" height="72" viewBox="0 0 729 72">
<style>
svg.railroad-diagram {
  background-color: hsl(30,20%,95%);
}
svg.railroad-diagram path {
  stroke-width: 3;
  stroke: black;
  fill: rgba(0,0,0,0);
}
svg.railroad-diagram text {
  font: bold 14px monospace;
  text-anchor: middle;
}
svg.railroad-diagram text.label {
  text-anchor: start;
}
svg.railroad-diagram text.comment {
  font: italic 12px monospace;
}
svg.railroad-diagram rect {
  stroke-width: 3;
  stroke: black;
  fill: hsl(120,100%,90%);
}
svg.railroad-diagram a text {
  fill: #2563eb;
}
svg.railroad-diagram a:hover rect {
  fill: hsl(210,100%,90%);
}
</style>

<g transform="translate(.5 .5)">
<path d="M 20 31 v 20 m 10 -20 v 20 m -10 -10 h 20.5"></path>
<g>
<path d="M40 41h0"></path>
<path d="M688 41h0"></path>
<path d="M40 41h10"></path>
<g>
<path d="M50 41h0"></path>
<path d="M102 41h0"></path>
<rect x="50" y="30" width="52" height="22" rx="10" ry="10"></rect>
<text x="76" y="45">CASE</text>
</g>
<path d="M102 41h10"></path>
<path d="M112 41h10"></path>
<g>
<path d="M122 41h0"></path>
<path d="M222 41h0"></path>
<rect x="122" y="30" width="100" height="22"></rect>
<text x="172" y="45">Expression</text>
</g>
<path d="M222 41h10"></path>
<path d="M232 41h10"></path>
<g>
<path d="M242 41h0"></path>
<path d="M382 41h0"></path>
<rect x="242" y="30" width="140" height="22"></rect>
<text x="312" y="45">WhenValueClause</text>
</g>
<path d="M382 41h10"></path>
<g>
<path d="M392 41h0"></path>
<path d="M624 41h0"></path>
<path d="M392 41a10 10 0 0 0 10 -10v0a10 10 0 0 1 10 -10"></path>
<g>
<path d="M412 21h192"></path>
</g>
<path d="M604 21a10 10 0 0 1 10 10v0a10 10 0 0 0 10 10"></path>
<path d="M392 41h20"></path>
<g>
<path d="M412 41h0"></path>
<path d="M604 41h0"></path>
<path d="M412 41h10"></path>
<g>
<path d="M422 41h0"></path>
<path d="M474 41h0"></path>
<rect x="422" y="30" width="52" height="22" rx="10" ry="10"></rect>
<text x="448" y="45">ELSE</text>
</g>
<path d="M474 41h10"></path>
<path d="M484 41h10"></path>
<g>
<path d="M494 41h0"></path>
<path d="M594 41h0"></path>
<rect x="494" y="30" width="100" height="22"></rect>
<text x="544" y="45">Expression</text>
</g>
<path d="M594 41h10"></path>
</g>
<path d="M604 41h20"></path>
</g>
<path d="M624 41h10"></path>
<g>
<path d="M634 41h0"></path>
<path d="M678 41h0"></path>
<rect x="634" y="30" width="44" height="22" rx="10" ry="10"></rect>
<text x="656" y="45">END</text>
</g>
<path d="M678 41h10"></path>
</g>
<path d="M 688 41 h 20 m -10 -10 v 20 m 10 -20 v 20"></path>
</g>
</svg>
