<svg xmlns:xlink="http://www.w3.org/1999/xlink" xmlns="http://www.w3.org/2000/svg" class="railroad-diagram" width="569" height="72" viewBox="0 0 569 72">
<style>
svg.railroad-diagram {
  background-color: hsl(30,20%,95%);
}
svg.railroad-diagram path {
  stroke-width: 3;
  stroke: black;
  fill: rgba(0,0,0,0);
}
svg.railroad-diagram text {
  font: bold 14px monospace;
  text-anchor: middle;
}
svg.railroad-diagram text.label {
  text-anchor: start;
}
svg.railroad-diagram text.comment {
  font: italic 12px monospace;
}
svg.railroad-diagram rect {
  stroke-width: 3;
  stroke: black;
  fill: hsl(120,100%,90%);
}
svg.railroad-diagram a text {
  fill: #2563eb;
}
svg.railroad-diagram a:hover rect {
  fill: hsl(210,100%,90%);
}
</style>

<g transform="translate(.5 .5)">
<path d="M 20 31 v 20 m 10 -20 v 20 m -10 -10 h 20.5"></path>
<g>
<path d="M40 41h0"></path>
<path d="M528 41h0"></path>
<path d="M40 41h10"></path>
<g>
<path d="M50 41h0"></path>
<path d="M102 41h0"></path>
<rect x="50" y="30" width="52" height="22" rx="10" ry="10"></rect>
<text x="76" y="45">CASE</text>
</g>
<path d="M102 41h10"></path>
<path d="M112 41h10"></path>
<g>
<path d="M122 41h0"></path>
<path d="M222 41h0"></path>
<rect x="122" y="30" width="100" height="22"></rect>
<text x="172" y="45">WhenClause</text>
</g>
<path d="M222 41h10"></path>
<g>
<path d="M232 41h0"></path>
<path d="M464 41h0"></path>
<path d="M232 41a10 10 0 0 0 10 -10v0a10 10 0 0 1 10 -10"></path>
<g>
<path d="M252 21h192"></path>
</g>
<path d="M444 21a10 10 0 0 1 10 10v0a10 10 0 0 0 10 10"></path>
<path d="M232 41h20"></path>
<g>
<path d="M252 41h0"></path>
<path d="M444 41h0"></path>
<path d="M252 41h10"></path>
<g>
<path d="M262 41h0"></path>
<path d="M314 41h0"></path>
<rect x="262" y="30" width="52" height="22" rx="10" ry="10"></rect>
<text x="288" y="45">ELSE</text>
</g>
<path d="M314 41h10"></path>
<path d="M324 41h10"></path>
<g>
<path d="M334 41h0"></path>
<path d="M434 41h0"></path>
<rect x="334" y="30" width="100" height="22"></rect>
<text x="384" y="45">Expression</text>
</g>
<path d="M434 41h10"></path>
</g>
<path d="M444 41h20"></path>
</g>
<path d="M464 41h10"></path>
<g>
<path d="M474 41h0"></path>
<path d="M518 41h0"></path>
<rect x="474" y="30" width="44" height="22" rx="10" ry="10"></rect>
<text x="496" y="45">END</text>
</g>
<path d="M518 41h10"></path>
</g>
<path d="M 528 41 h 20 m -10 -10 v 20 m 10 -20 v 20"></path>
</g>
</svg>
