<svg xmlns:xlink="http://www.w3.org/1999/xlink" xmlns="http://www.w3.org/2000/svg" class="railroad-diagram" width="721" height="72" viewBox="0 0 721 72">
<style>
svg.railroad-diagram {
  background-color: hsl(30,20%,95%);
}
svg.railroad-diagram path {
  stroke-width: 3;
  stroke: black;
  fill: rgba(0,0,0,0);
}
svg.railroad-diagram text {
  font: bold 14px monospace;
  text-anchor: middle;
}
svg.railroad-diagram text.label {
  text-anchor: start;
}
svg.railroad-diagram text.comment {
  font: italic 12px monospace;
}
svg.railroad-diagram rect {
  stroke-width: 3;
  stroke: black;
  fill: hsl(120,100%,90%);
}
svg.railroad-diagram a text {
  fill: #2563eb;
}
svg.railroad-diagram a:hover rect {
  fill: hsl(210,100%,90%);
}
</style>

<g transform="translate(.5 .5)">
<path d="M 20 31 v 20 m 10 -20 v 20 m -10 -10 h 20.5"></path>
<g>
<path d="M40 41h0"></path>
<path d="M680 41h0"></path>
<path d="M40 41h10"></path>
<g>
<path d="M50 41h0"></path>
<path d="M102 41h0"></path>
<rect x="50" y="30" width="52" height="22" rx="10" ry="10"></rect>
<text x="76" y="45">CASE</text>
</g>
<path d="M102 41h10"></path>
<path d="M112 41h10"></path>
<g>
<path d="M122 41h0"></path>
<path d="M222 41h0"></path>
<rect x="122" y="30" width="100" height="22"></rect>
<text x="172" y="45">ScalarExpr</text>
</g>
<path d="M222 41h10"></path>
<path d="M232 41h10"></path>
<g>
<path d="M242 41h0"></path>
<path d="M374 41h0"></path>
<rect x="242" y="30" width="132" height="22"></rect>
<text x="308" y="45">WhenScalarExpr</text>
</g>
<path d="M374 41h10"></path>
<g>
<path d="M384 41h0"></path>
<path d="M616 41h0"></path>
<path d="M384 41a10 10 0 0 0 10 -10v0a10 10 0 0 1 10 -10"></path>
<g>
<path d="M404 21h192"></path>
</g>
<path d="M596 21a10 10 0 0 1 10 10v0a10 10 0 0 0 10 10"></path>
<path d="M384 41h20"></path>
<g>
<path d="M404 41h0"></path>
<path d="M596 41h0"></path>
<path d="M404 41h10"></path>
<g>
<path d="M414 41h0"></path>
<path d="M466 41h0"></path>
<rect x="414" y="30" width="52" height="22" rx="10" ry="10"></rect>
<text x="440" y="45">ELSE</text>
</g>
<path d="M466 41h10"></path>
<path d="M476 41h10"></path>
<g>
<path d="M486 41h0"></path>
<path d="M586 41h0"></path>
<rect x="486" y="30" width="100" height="22"></rect>
<text x="536" y="45">ScalarExpr</text>
</g>
<path d="M586 41h10"></path>
</g>
<path d="M596 41h20"></path>
</g>
<path d="M616 41h10"></path>
<g>
<path d="M626 41h0"></path>
<path d="M670 41h0"></path>
<rect x="626" y="30" width="44" height="22" rx="10" ry="10"></rect>
<text x="648" y="45">END</text>
</g>
<path d="M670 41h10"></path>
</g>
<path d="M 680 41 h 20 m -10 -10 v 20 m 10 -20 v 20"></path>
</g>
</svg>
