<svg xmlns:xlink="http://www.w3.org/1999/xlink" xmlns="http://www.w3.org/2000/svg" class="railroad-diagram" width="321" height="122" viewBox="0 0 321 122">
<style>
svg.railroad-diagram {
  background-color: hsl(30,20%,95%);
}
svg.railroad-diagram path {
  stroke-width: 3;
  stroke: black;
  fill: rgba(0,0,0,0);
}
svg.railroad-diagram text {
  font: bold 14px monospace;
  text-anchor: middle;
}
svg.railroad-diagram text.label {
  text-anchor: start;
}
svg.railroad-diagram text.comment {
  font: italic 12px monospace;
}
svg.railroad-diagram rect {
  stroke-width: 3;
  stroke: black;
  fill: hsl(120,100%,90%);
}
svg.railroad-diagram a text {
  fill: #2563eb;
}
svg.railroad-diagram a:hover rect {
  fill: hsl(210,100%,90%);
}
</style>

<g transform="translate(.5 .5)">
<path d="M 20 21 v 20 m 10 -20 v 20 m -10 -10 h 20.5"></path>
<g>
<path d="M40 31h0"></path>
<path d="M280 31h0"></path>
<path d="M40 31h20"></path>
<g>
<path d="M60 31h0"></path>
<path d="M260 31h0"></path>
<path d="M60 31h10"></path>
<g>
<path d="M70 31h0"></path>
<path d="M98 31h0"></path>
<rect x="70" y="20" width="28" height="22" rx="10" ry="10"></rect>
<text x="84" y="35">(</text>
</g>
<path d="M98 31h10"></path>
<path d="M108 31h10"></path>
<g>
<path d="M118 31h0"></path>
<path d="M202 31h0"></path>
<rect x="118" y="20" width="84" height="22"></rect>
<text x="160" y="35">Subquery</text>
</g>
<path d="M202 31h10"></path>
<path d="M212 31h10"></path>
<g>
<path d="M222 31h0"></path>
<path d="M250 31h0"></path>
<rect x="222" y="20" width="28" height="22" rx="10" ry="10"></rect>
<text x="236" y="35">)</text>
</g>
<path d="M250 31h10"></path>
</g>
<path d="M260 31h20"></path>
<path d="M40 31a10 10 0 0 1 10 10v10a10 10 0 0 0 10 10"></path>
<g>
<path d="M60 61h50"></path>
<path d="M210 61h50"></path>
<rect x="110" y="50" width="100" height="22"></rect>
<text x="160" y="65">Identifier</text>
</g>
<path d="M260 61a10 10 0 0 0 10 -10v-10a10 10 0 0 1 10 -10"></path>
<path d="M40 31a10 10 0 0 1 10 10v40a10 10 0 0 0 10 10"></path>
<g>
<path d="M60 91h50"></path>
<path d="M210 91h50"></path>
<rect x="110" y="80" width="100" height="22"></rect>
<text x="160" y="95">Expression</text>
</g>
<path d="M260 91a10 10 0 0 0 10 -10v-40a10 10 0 0 1 10 -10"></path>
</g>
<path d="M 280 31 h 20 m -10 -10 v 20 m 10 -20 v 20"></path>
</g>
</svg>
