<svg xmlns:xlink="http://www.w3.org/1999/xlink" xmlns="http://www.w3.org/2000/svg" class="railroad-diagram" width="733" height="102" viewBox="0 0 733 102">
<style>
svg.railroad-diagram {
  background-color: hsl(30,20%,95%);
}
svg.railroad-diagram path {
  stroke-width: 3;
  stroke: black;
  fill: rgba(0,0,0,0);
}
svg.railroad-diagram text {
  font: bold 14px monospace;
  text-anchor: middle;
}
svg.railroad-diagram text.label {
  text-anchor: start;
}
svg.railroad-diagram text.comment {
  font: italic 12px monospace;
}
svg.railroad-diagram rect {
  stroke-width: 3;
  stroke: black;
  fill: hsl(120,100%,90%);
}
svg.railroad-diagram a text {
  fill: #2563eb;
}
svg.railroad-diagram a:hover rect {
  fill: hsl(210,100%,90%);
}
</style>

<g transform="translate(.5 .5)">
<path d="M 20 31 v 20 m 10 -20 v 20 m -10 -10 h 20.5"></path>
<g>
<path d="M40 41h0"></path>
<path d="M692 41h0"></path>
<path d="M40 41h10"></path>
<g>
<path d="M50 41h0"></path>
<path d="M78 41h0"></path>
<rect x="50" y="30" width="28" height="22" rx="10" ry="10"></rect>
<text x="64" y="45">(</text>
</g>
<path d="M78 41h10"></path>
<path d="M88 41h10"></path>
<g>
<path d="M98 41h0"></path>
<path d="M182 41h0"></path>
<rect x="98" y="30" width="84" height="22"></rect>
<text x="140" y="45">Subquery</text>
</g>
<path d="M182 41h10"></path>
<path d="M192 41h10"></path>
<g>
<path d="M202 41h0"></path>
<path d="M230 41h0"></path>
<rect x="202" y="30" width="28" height="22" rx="10" ry="10"></rect>
<text x="216" y="45">)</text>
</g>
<path d="M230 41h10"></path>
<g>
<path d="M240 41h0"></path>
<path d="M416 41h0"></path>
<path d="M240 41h10"></path>
<g>
<path d="M250 41h0"></path>
<path d="M286 41h0"></path>
<rect x="250" y="30" width="36" height="22" rx="10" ry="10"></rect>
<text x="268" y="45">AS</text>
</g>
<path d="M286 41h10"></path>
<path d="M296 41h10"></path>
<g>
<path d="M306 41h0"></path>
<path d="M406 41h0"></path>
<rect x="306" y="30" width="100" height="22"></rect>
<text x="356" y="45">Identifier</text>
</g>
<path d="M406 41h10"></path>
</g>
<g>
<path d="M416 41h0"></path>
<path d="M692 41h0"></path>
<path d="M416 41a10 10 0 0 0 10 -10v0a10 10 0 0 1 10 -10"></path>
<g>
<path d="M436 21h236"></path>
</g>
<path d="M672 21a10 10 0 0 1 10 10v0a10 10 0 0 0 10 10"></path>
<path d="M416 41h20"></path>
<g>
<path d="M436 41h0"></path>
<path d="M672 41h0"></path>
<path d="M436 41h10"></path>
<g>
<path d="M446 41h0"></path>
<path d="M474 41h0"></path>
<rect x="446" y="30" width="28" height="22" rx="10" ry="10"></rect>
<text x="460" y="45">(</text>
</g>
<path d="M474 41h10"></path>
<path d="M484 41h10"></path>
<g>
<path d="M494 41h0"></path>
<path d="M614 41h0"></path>
<path d="M494 41h10"></path>
<g>
<path d="M504 41h0"></path>
<path d="M604 41h0"></path>
<rect x="504" y="30" width="100" height="22"></rect>
<text x="554" y="45">Identifier</text>
</g>
<path d="M604 41h10"></path>
<path d="M504 41a10 10 0 0 0 -10 10v10a10 10 0 0 0 10 10"></path>
<g>
<path d="M504 71h36"></path>
<path d="M568 71h36"></path>
<rect x="540" y="60" width="28" height="22" rx="10" ry="10"></rect>
<text x="554" y="75">,</text>
</g>
<path d="M604 71a10 10 0 0 0 10 -10v-10a10 10 0 0 0 -10 -10"></path>
</g>
<path d="M614 41h10"></path>
<path d="M624 41h10"></path>
<g>
<path d="M634 41h0"></path>
<path d="M662 41h0"></path>
<rect x="634" y="30" width="28" height="22" rx="10" ry="10"></rect>
<text x="648" y="45">)</text>
</g>
<path d="M662 41h10"></path>
</g>
<path d="M672 41h20"></path>
</g>
</g>
<path d="M 692 41 h 20 m -10 -10 v 20 m 10 -20 v 20"></path>
</g>
</svg>
