<svg xmlns:xlink="http://www.w3.org/1999/xlink" xmlns="http://www.w3.org/2000/svg" class="railroad-diagram" width="957" height="91" viewBox="0 0 957 91">
<style>
svg.railroad-diagram {
  background-color: hsl(30,20%,95%);
}
svg.railroad-diagram path {
  stroke-width: 3;
  stroke: black;
  fill: rgba(0,0,0,0);
}
svg.railroad-diagram text {
  font: bold 14px monospace;
  text-anchor: middle;
}
svg.railroad-diagram text.label {
  text-anchor: start;
}
svg.railroad-diagram text.comment {
  font: italic 12px monospace;
}
svg.railroad-diagram rect {
  stroke-width: 3;
  stroke: black;
  fill: hsl(120,100%,90%);
}
svg.railroad-diagram a text {
  fill: #2563eb;
}
svg.railroad-diagram a:hover rect {
  fill: hsl(210,100%,90%);
}
</style>

<g transform="translate(.5 .5)">
<path d="M 20 41 v 20 m 10 -20 v 20 m -10 -10 h 20.5"></path>
<g>
<path d="M40 51h0"></path>
<path d="M916 51h0"></path>
<g>
<path d="M40 51h0"></path>
<path d="M388 51h0"></path>
<path d="M40 51h10"></path>
<g>
<path d="M50 51h0"></path>
<path d="M206 51h0"></path>
<rect x="50" y="40" width="156" height="22"></rect>
<text x="128" y="55">PrimaryExpression</text>
</g>
<path d="M206 51h10"></path>
<g>
<path d="M216 51h0"></path>
<path d="M388 51h0"></path>
<path d="M216 51a10 10 0 0 0 10 -10v0a10 10 0 0 1 10 -10"></path>
<g>
<path d="M236 31h132"></path>
</g>
<path d="M368 31a10 10 0 0 1 10 10v0a10 10 0 0 0 10 10"></path>
<path d="M216 51h20"></path>
<g>
<path d="M236 51h0"></path>
<path d="M368 51h0"></path>
<rect x="236" y="40" width="132" height="22"></rect>
<text x="302" y="55">PropertyAccess</text>
</g>
<path d="M368 51h20"></path>
</g>
</g>
<g>
<path d="M388 51h0"></path>
<path d="M916 51h0"></path>
<path d="M388 51a10 10 0 0 0 10 -10v-9a10 10 0 0 1 10 -10"></path>
<g>
<path d="M408 22h488"></path>
</g>
<path d="M896 22a10 10 0 0 1 10 10v9a10 10 0 0 0 10 10"></path>
<path d="M388 51h20"></path>
<g>
<path d="M408 51h0"></path>
<path d="M896 51h0"></path>
<path d="M408 51h10"></path>
<g>
<path d="M418 51h0"></path>
<path d="M886 51h0"></path>
<path d="M418 51h10"></path>
<g>
<path d="M428 51h0"></path>
<path d="M528 51h0"></path>
<rect x="428" y="40" width="100" height="22" rx="10" ry="10"></rect>
<text x="478" y="55">«operator»</text>
</g>
<path d="M528 51h10"></path>
<g>
<path d="M538 51h0"></path>
<path d="M886 51h0"></path>
<path d="M538 51h10"></path>
<g>
<path d="M548 51h0"></path>
<path d="M704 51h0"></path>
<rect x="548" y="40" width="156" height="22"></rect>
<text x="626" y="55">PrimaryExpression</text>
</g>
<path d="M704 51h10"></path>
<g>
<path d="M714 51h0"></path>
<path d="M886 51h0"></path>
<path d="M714 51a10 10 0 0 0 10 -10v0a10 10 0 0 1 10 -10"></path>
<g>
<path d="M734 31h132"></path>
</g>
<path d="M866 31a10 10 0 0 1 10 10v0a10 10 0 0 0 10 10"></path>
<path d="M714 51h20"></path>
<g>
<path d="M734 51h0"></path>
<path d="M866 51h0"></path>
<rect x="734" y="40" width="132" height="22"></rect>
<text x="800" y="55">PropertyAccess</text>
</g>
<path d="M866 51h20"></path>
</g>
</g>
</g>
<path d="M886 51h10"></path>
<path d="M418 51a10 10 0 0 0 -10 10v0a10 10 0 0 0 10 10"></path>
<g>
<path d="M418 71h468"></path>
</g>
<path d="M886 71a10 10 0 0 0 10 -10v0a10 10 0 0 0 -10 -10"></path>
</g>
<path d="M896 51h20"></path>
</g>
</g>
<path d="M 916 51 h 20 m -10 -10 v 20 m 10 -20 v 20"></path>
</g>
</svg>
