<svg xmlns:xlink="http://www.w3.org/1999/xlink" xmlns="http://www.w3.org/2000/svg" class="railroad-diagram" width="425" height="122" viewBox="0 0 425 122">
<style>
svg.railroad-diagram {
  background-color: hsl(30,20%,95%);
}
svg.railroad-diagram path {
  stroke-width: 3;
  stroke: black;
  fill: rgba(0,0,0,0);
}
svg.railroad-diagram text {
  font: bold 14px monospace;
  text-anchor: middle;
}
svg.railroad-diagram text.label {
  text-anchor: start;
}
svg.railroad-diagram text.comment {
  font: italic 12px monospace;
}
svg.railroad-diagram rect {
  stroke-width: 3;
  stroke: black;
  fill: hsl(120,100%,90%);
}
svg.railroad-diagram a text {
  fill: #2563eb;
}
svg.railroad-diagram a:hover rect {
  fill: hsl(210,100%,90%);
}
</style>

<g transform="translate(.5 .5)">
<path d="M 20 21 v 20 m 10 -20 v 20 m -10 -10 h 20.5"></path>
<g>
<path d="M40 31h0"></path>
<path d="M384 31h0"></path>
<path d="M40 31h20"></path>
<g>
<path d="M60 31h0"></path>
<path d="M364 31h0"></path>
<path d="M60 31h20"></path>
<g>
<path d="M80 31h0"></path>
<path d="M344 31h0"></path>
<path d="M80 31h10"></path>
<g>
<path d="M90 31h0"></path>
<path d="M190 31h0"></path>
<rect x="90" y="20" width="100" height="22"></rect>
<text x="140" y="35">ScalarExpr</text>
</g>
<path d="M190 31h10"></path>
<path d="M200 31h10"></path>
<g>
<path d="M210 31h0"></path>
<path d="M334 31h0"></path>
<rect x="210" y="20" width="124" height="22"></rect>
<text x="272" y="35">PredicateTail</text>
</g>
<path d="M334 31h10"></path>
</g>
<path d="M344 31h20"></path>
<path d="M60 31a10 10 0 0 1 10 10v10a10 10 0 0 0 10 10"></path>
<g>
<path d="M80 61h82"></path>
<path d="M262 61h82"></path>
<rect x="162" y="50" width="100" height="22"></rect>
<text x="212" y="65">ScalarExpr</text>
</g>
<path d="M344 61a10 10 0 0 0 10 -10v-10a10 10 0 0 1 10 -10"></path>
</g>
<path d="M364 31h20"></path>
<path d="M40 31a10 10 0 0 1 10 10v40a10 10 0 0 0 10 10"></path>
<g>
<path d="M60 91h48"></path>
<path d="M316 91h48"></path>
<path d="M108 91h10"></path>
<g>
<path d="M118 91h0"></path>
<path d="M146 91h0"></path>
<rect x="118" y="80" width="28" height="22" rx="10" ry="10"></rect>
<text x="132" y="95">(</text>
</g>
<path d="M146 91h10"></path>
<path d="M156 91h10"></path>
<g>
<path d="M166 91h0"></path>
<path d="M258 91h0"></path>
<rect x="166" y="80" width="92" height="22"></rect>
<text x="212" y="95">WhereExpr</text>
</g>
<path d="M258 91h10"></path>
<path d="M268 91h10"></path>
<g>
<path d="M278 91h0"></path>
<path d="M306 91h0"></path>
<rect x="278" y="80" width="28" height="22" rx="10" ry="10"></rect>
<text x="292" y="95">)</text>
</g>
<path d="M306 91h10"></path>
</g>
<path d="M364 91a10 10 0 0 0 10 -10v-40a10 10 0 0 1 10 -10"></path>
</g>
<path d="M 384 31 h 20 m -10 -10 v 20 m 10 -20 v 20"></path>
</g>
</svg>
