<svg xmlns:xlink="http://www.w3.org/1999/xlink" xmlns="http://www.w3.org/2000/svg" class="railroad-diagram" width="409" height="72" viewBox="0 0 409 72">
<style>
svg.railroad-diagram {
  background-color: hsl(30,20%,95%);
}
svg.railroad-diagram path {
  stroke-width: 3;
  stroke: black;
  fill: rgba(0,0,0,0);
}
svg.railroad-diagram text {
  font: bold 14px monospace;
  text-anchor: middle;
}
svg.railroad-diagram text.label {
  text-anchor: start;
}
svg.railroad-diagram text.comment {
  font: italic 12px monospace;
}
svg.railroad-diagram rect {
  stroke-width: 3;
  stroke: black;
  fill: hsl(120,100%,90%);
}
svg.railroad-diagram a text {
  fill: #2563eb;
}
svg.railroad-diagram a:hover rect {
  fill: hsl(210,100%,90%);
}
</style>

<g transform="translate(.5 .5)">
<path d="M 20 31 v 20 m 10 -20 v 20 m -10 -10 h 20.5"></path>
<g>
<path d="M40 41h0"></path>
<path d="M368 41h0"></path>
<path d="M40 41h10"></path>
<g>
<path d="M50 41h0"></path>
<path d="M150 41h0"></path>
<rect x="50" y="30" width="100" height="22"></rect>
<text x="100" y="45">Identifier</text>
</g>
<path d="M150 41h10"></path>
<g>
<path d="M160 41h0"></path>
<path d="M368 41h0"></path>
<path d="M160 41a10 10 0 0 0 10 -10v0a10 10 0 0 1 10 -10"></path>
<g>
<path d="M180 21h168"></path>
</g>
<path d="M348 21a10 10 0 0 1 10 10v0a10 10 0 0 0 10 10"></path>
<path d="M160 41h20"></path>
<g>
<path d="M180 41h0"></path>
<path d="M348 41h0"></path>
<path d="M180 41h10"></path>
<g>
<path d="M190 41h0"></path>
<path d="M218 41h0"></path>
<rect x="190" y="30" width="28" height="22" rx="10" ry="10"></rect>
<text x="204" y="45">.</text>
</g>
<path d="M218 41h10"></path>
<path d="M228 41h10"></path>
<g>
<path d="M238 41h0"></path>
<path d="M338 41h0"></path>
<rect x="238" y="30" width="100" height="22"></rect>
<text x="288" y="45">Identifier</text>
</g>
<path d="M338 41h10"></path>
</g>
<path d="M348 41h20"></path>
</g>
</g>
<path d="M 368 41 h 20 m -10 -10 v 20 m 10 -20 v 20"></path>
</g>
</svg>
