<svg xmlns:xlink="http://www.w3.org/1999/xlink" xmlns="http://www.w3.org/2000/svg" class="railroad-diagram" width="337" height="332" viewBox="0 0 337 332">
<style>
svg.railroad-diagram {
  background-color: hsl(30,20%,95%);
}
svg.railroad-diagram path {
  stroke-width: 3;
  stroke: black;
  fill: rgba(0,0,0,0);
}
svg.railroad-diagram text {
  font: bold 14px monospace;
  text-anchor: middle;
}
svg.railroad-diagram text.label {
  text-anchor: start;
}
svg.railroad-diagram text.comment {
  font: italic 12px monospace;
}
svg.railroad-diagram rect {
  stroke-width: 3;
  stroke: black;
  fill: hsl(120,100%,90%);
}
svg.railroad-diagram a text {
  fill: #2563eb;
}
svg.railroad-diagram a:hover rect {
  fill: hsl(210,100%,90%);
}
</style>

<g transform="translate(.5 .5)">
<path d="M 20 21 v 20 m 10 -20 v 20 m -10 -10 h 20.5"></path>
<g>
<path d="M40 31h0"></path>
<path d="M296 31h0"></path>
<path d="M40 31h20"></path>
<g>
<path d="M60 31h46"></path>
<path d="M230 31h46"></path>
<rect x="106" y="20" width="124" height="22"></rect>
<text x="168" y="35">StringLiteral</text>
</g>
<path d="M276 31h20"></path>
<path d="M40 31a10 10 0 0 1 10 10v10a10 10 0 0 0 10 10"></path>
<g>
<path d="M60 61h42"></path>
<path d="M234 61h42"></path>
<rect x="102" y="50" width="132" height="22"></rect>
<text x="168" y="65">NumericLiteral</text>
</g>
<path d="M276 61a10 10 0 0 0 10 -10v-10a10 10 0 0 1 10 -10"></path>
<path d="M40 31a10 10 0 0 1 10 10v40a10 10 0 0 0 10 10"></path>
<g>
<path d="M60 91h82"></path>
<path d="M194 91h82"></path>
<rect x="142" y="80" width="52" height="22" rx="10" ry="10"></rect>
<text x="168" y="95">TRUE</text>
</g>
<path d="M276 91a10 10 0 0 0 10 -10v-40a10 10 0 0 1 10 -10"></path>
<path d="M40 31a10 10 0 0 1 10 10v70a10 10 0 0 0 10 10"></path>
<g>
<path d="M60 121h78"></path>
<path d="M198 121h78"></path>
<rect x="138" y="110" width="60" height="22" rx="10" ry="10"></rect>
<text x="168" y="125">FALSE</text>
</g>
<path d="M276 121a10 10 0 0 0 10 -10v-70a10 10 0 0 1 10 -10"></path>
<path d="M40 31a10 10 0 0 1 10 10v100a10 10 0 0 0 10 10"></path>
<g>
<path d="M60 151h82"></path>
<path d="M194 151h82"></path>
<rect x="142" y="140" width="52" height="22" rx="10" ry="10"></rect>
<text x="168" y="155">NULL</text>
</g>
<path d="M276 151a10 10 0 0 0 10 -10v-100a10 10 0 0 1 10 -10"></path>
<path d="M40 31a10 10 0 0 1 10 10v130a10 10 0 0 0 10 10"></path>
<g>
<path d="M60 181h42"></path>
<path d="M234 181h42"></path>
<rect x="102" y="170" width="132" height="22"></rect>
<text x="168" y="185">CaseExpression</text>
</g>
<path d="M276 181a10 10 0 0 0 10 -10v-130a10 10 0 0 1 10 -10"></path>
<path d="M40 31a10 10 0 0 1 10 10v160a10 10 0 0 0 10 10"></path>
<g>
<path d="M60 211h42"></path>
<path d="M234 211h42"></path>
<rect x="102" y="200" width="132" height="22"></rect>
<text x="168" y="215">CastExpression</text>
</g>
<path d="M276 211a10 10 0 0 0 10 -10v-160a10 10 0 0 1 10 -10"></path>
<path d="M40 31a10 10 0 0 1 10 10v190a10 10 0 0 0 10 10"></path>
<g>
<path d="M60 241h50"></path>
<path d="M226 241h50"></path>
<rect x="110" y="230" width="116" height="22"></rect>
<text x="168" y="245">FunctionCall</text>
</g>
<path d="M276 241a10 10 0 0 0 10 -10v-190a10 10 0 0 1 10 -10"></path>
<path d="M40 31a10 10 0 0 1 10 10v220a10 10 0 0 0 10 10"></path>
<g>
<path d="M60 271h62"></path>
<path d="M214 271h62"></path>
<rect x="122" y="260" width="92" height="22"></rect>
<text x="168" y="275">Reference</text>
</g>
<path d="M276 271a10 10 0 0 0 10 -10v-220a10 10 0 0 1 10 -10"></path>
<path d="M40 31a10 10 0 0 1 10 10v250a10 10 0 0 0 10 10"></path>
<g>
<path d="M60 301h0"></path>
<path d="M276 301h0"></path>
<path d="M60 301h10"></path>
<g>
<path d="M70 301h0"></path>
<path d="M98 301h0"></path>
<rect x="70" y="290" width="28" height="22" rx="10" ry="10"></rect>
<text x="84" y="305">(</text>
</g>
<path d="M98 301h10"></path>
<path d="M108 301h10"></path>
<g>
<path d="M118 301h0"></path>
<path d="M218 301h0"></path>
<rect x="118" y="290" width="100" height="22"></rect>
<text x="168" y="305">Expression</text>
</g>
<path d="M218 301h10"></path>
<path d="M228 301h10"></path>
<g>
<path d="M238 301h0"></path>
<path d="M266 301h0"></path>
<rect x="238" y="290" width="28" height="22" rx="10" ry="10"></rect>
<text x="252" y="305">)</text>
</g>
<path d="M266 301h10"></path>
</g>
<path d="M276 301a10 10 0 0 0 10 -10v-250a10 10 0 0 1 10 -10"></path>
</g>
<path d="M 296 31 h 20 m -10 -10 v 20 m 10 -20 v 20"></path>
</g>
</svg>
