<svg xmlns:xlink="http://www.w3.org/1999/xlink" xmlns="http://www.w3.org/2000/svg" class="railroad-diagram" width="1253" height="110" viewBox="0 0 1253 110">
<style>
svg.railroad-diagram {
  background-color: hsl(30,20%,95%);
}
svg.railroad-diagram path {
  stroke-width: 3;
  stroke: black;
  fill: rgba(0,0,0,0);
}
svg.railroad-diagram text {
  font: bold 14px monospace;
  text-anchor: middle;
}
svg.railroad-diagram text.label {
  text-anchor: start;
}
svg.railroad-diagram text.comment {
  font: italic 12px monospace;
}
svg.railroad-diagram rect {
  stroke-width: 3;
  stroke: black;
  fill: hsl(120,100%,90%);
}
svg.railroad-diagram a text {
  fill: #2563eb;
}
svg.railroad-diagram a:hover rect {
  fill: hsl(210,100%,90%);
}
</style>

<g transform="translate(.5 .5)">
<path d="M 20 31 v 20 m 10 -20 v 20 m -10 -10 h 20.5"></path>
<g>
<path d="M40 41h0"></path>
<path d="M1212 41h0"></path>
<path d="M40 41h10"></path>
<g>
<path d="M50 41h0"></path>
<path d="M118 41h0"></path>
<rect x="50" y="30" width="68" height="22" rx="10" ry="10"></rect>
<text x="84" y="45">SELECT</text>
</g>
<path d="M118 41h10"></path>
<path d="M128 41h10"></path>
<g>
<path d="M138 41h0"></path>
<path d="M494 41h0"></path>
<path d="M138 41h10"></path>
<g>
<path d="M148 41h0"></path>
<path d="M484 41h0"></path>
<path d="M148 41h10"></path>
<g>
<path d="M158 41h0"></path>
<path d="M258 41h0"></path>
<rect x="158" y="30" width="100" height="22"></rect>
<text x="208" y="45">Expression</text>
</g>
<path d="M258 41h10"></path>
<g>
<path d="M268 41h0"></path>
<path d="M484 41h0"></path>
<path d="M268 41a10 10 0 0 0 10 -10v0a10 10 0 0 1 10 -10"></path>
<g>
<path d="M288 21h176"></path>
</g>
<path d="M464 21a10 10 0 0 1 10 10v0a10 10 0 0 0 10 10"></path>
<path d="M268 41h20"></path>
<g>
<path d="M288 41h0"></path>
<path d="M464 41h0"></path>
<path d="M288 41h10"></path>
<g>
<path d="M298 41h0"></path>
<path d="M334 41h0"></path>
<rect x="298" y="30" width="36" height="22" rx="10" ry="10"></rect>
<text x="316" y="45">AS</text>
</g>
<path d="M334 41h10"></path>
<path d="M344 41h10"></path>
<g>
<path d="M354 41h0"></path>
<path d="M454 41h0"></path>
<rect x="354" y="30" width="100" height="22"></rect>
<text x="404" y="45">Identifier</text>
</g>
<path d="M454 41h10"></path>
</g>
<path d="M464 41h20"></path>
</g>
</g>
<path d="M484 41h10"></path>
<path d="M148 41a10 10 0 0 0 -10 10v10a10 10 0 0 0 10 10"></path>
<g>
<path d="M148 71h154"></path>
<path d="M330 71h154"></path>
<rect x="302" y="60" width="28" height="22" rx="10" ry="10"></rect>
<text x="316" y="75">,</text>
</g>
<path d="M484 71a10 10 0 0 0 10 -10v-10a10 10 0 0 0 -10 -10"></path>
</g>
<path d="M494 41h10"></path>
<path d="M504 41h10"></path>
<g>
<path d="M514 41h0"></path>
<path d="M566 41h0"></path>
<rect x="514" y="30" width="52" height="22" rx="10" ry="10"></rect>
<text x="540" y="45">FROM</text>
</g>
<path d="M566 41h10"></path>
<path d="M576 41h10"></path>
<g>
<path d="M586 41h0"></path>
<path d="M686 41h0"></path>
<rect x="586" y="30" width="100" height="22"></rect>
<text x="636" y="45">FromSource</text>
</g>
<path d="M686 41h10"></path>
<g>
<path d="M696 41h0"></path>
<path d="M964 41h0"></path>
<path d="M696 41a10 10 0 0 0 10 -10v0a10 10 0 0 1 10 -10"></path>
<g>
<path d="M716 21h228"></path>
</g>
<path d="M944 21a10 10 0 0 1 10 10v0a10 10 0 0 0 10 10"></path>
<path d="M696 41h20"></path>
<g>
<path d="M716 41h0"></path>
<path d="M944 41h0"></path>
<path d="M716 41h10"></path>
<g>
<path d="M726 41h0"></path>
<path d="M934 41h0"></path>
<path d="M726 41h20"></path>
<g>
<path d="M746 41h0"></path>
<path d="M914 41h0"></path>
<path d="M746 41h10"></path>
<g>
<path d="M756 41h0"></path>
<path d="M784 41h0"></path>
<rect x="756" y="30" width="28" height="22" rx="10" ry="10"></rect>
<text x="770" y="45">,</text>
</g>
<path d="M784 41h10"></path>
<path d="M794 41h10"></path>
<g>
<path d="M804 41h0"></path>
<path d="M904 41h0"></path>
<rect x="804" y="30" width="100" height="22"></rect>
<text x="854" y="45">FromSource</text>
</g>
<path d="M904 41h10"></path>
</g>
<path d="M914 41h20"></path>
<path d="M726 41a10 10 0 0 1 10 10v10a10 10 0 0 0 10 10"></path>
<g>
<path d="M746 71h34"></path>
<path d="M880 71h34"></path>
<rect x="780" y="60" width="100" height="22"></rect>
<text x="830" y="75">JoinClause</text>
</g>
<path d="M914 71a10 10 0 0 0 10 -10v-10a10 10 0 0 1 10 -10"></path>
</g>
<path d="M934 41h10"></path>
<path d="M726 41a10 10 0 0 0 -10 10v29a10 10 0 0 0 10 10"></path>
<g>
<path d="M726 90h208"></path>
</g>
<path d="M934 90a10 10 0 0 0 10 -10v-29a10 10 0 0 0 -10 -10"></path>
</g>
<path d="M944 41h20"></path>
</g>
<g>
<path d="M964 41h0"></path>
<path d="M1212 41h0"></path>
<path d="M964 41a10 10 0 0 0 10 -10v0a10 10 0 0 1 10 -10"></path>
<g>
<path d="M984 21h208"></path>
</g>
<path d="M1192 21a10 10 0 0 1 10 10v0a10 10 0 0 0 10 10"></path>
<path d="M964 41h20"></path>
<g>
<path d="M984 41h0"></path>
<path d="M1192 41h0"></path>
<path d="M984 41h10"></path>
<g>
<path d="M994 41h0"></path>
<path d="M1054 41h0"></path>
<rect x="994" y="30" width="60" height="22" rx="10" ry="10"></rect>
<text x="1024" y="45">WHERE</text>
</g>
<path d="M1054 41h10"></path>
<path d="M1064 41h10"></path>
<g>
<path d="M1074 41h0"></path>
<path d="M1182 41h0"></path>
<rect x="1074" y="30" width="108" height="22"></rect>
<text x="1128" y="45">WhereClause</text>
</g>
<path d="M1182 41h10"></path>
</g>
<path d="M1192 41h20"></path>
</g>
</g>
<path d="M 1212 41 h 20 m -10 -10 v 20 m 10 -20 v 20"></path>
</g>
</svg>
