<svg xmlns:xlink="http://www.w3.org/1999/xlink" xmlns="http://www.w3.org/2000/svg" class="railroad-diagram" width="457" height="92" viewBox="0 0 457 92">
<style>
svg.railroad-diagram {
  background-color: hsl(30,20%,95%);
}
svg.railroad-diagram path {
  stroke-width: 3;
  stroke: black;
  fill: rgba(0,0,0,0);
}
svg.railroad-diagram text {
  font: bold 14px monospace;
  text-anchor: middle;
}
svg.railroad-diagram text.label {
  text-anchor: start;
}
svg.railroad-diagram text.comment {
  font: italic 12px monospace;
}
svg.railroad-diagram rect {
  stroke-width: 3;
  stroke: black;
  fill: hsl(120,100%,90%);
}
svg.railroad-diagram a text {
  fill: #2563eb;
}
svg.railroad-diagram a:hover rect {
  fill: hsl(210,100%,90%);
}
</style>

<g transform="translate(.5 .5)">
<path d="M 20 21 v 20 m 10 -20 v 20 m -10 -10 h 20.5"></path>
<g>
<path d="M40 31h0"></path>
<path d="M416 31h0"></path>
<path d="M40 31h20"></path>
<g>
<path d="M60 31h0"></path>
<path d="M396 31h0"></path>
<path d="M60 31h10"></path>
<g>
<path d="M70 31h0"></path>
<path d="M210 31h0"></path>
<rect x="70" y="20" width="140" height="22"></rect>
<text x="140" y="35">TableValuedCall</text>
</g>
<path d="M210 31h10"></path>
<g>
<path d="M220 31h0"></path>
<path d="M396 31h0"></path>
<path d="M220 31h10"></path>
<g>
<path d="M230 31h0"></path>
<path d="M266 31h0"></path>
<rect x="230" y="20" width="36" height="22" rx="10" ry="10"></rect>
<text x="248" y="35">AS</text>
</g>
<path d="M266 31h10"></path>
<path d="M276 31h10"></path>
<g>
<path d="M286 31h0"></path>
<path d="M386 31h0"></path>
<rect x="286" y="20" width="100" height="22"></rect>
<text x="336" y="35">Identifier</text>
</g>
<path d="M386 31h10"></path>
</g>
</g>
<path d="M396 31h20"></path>
<path d="M40 31a10 10 0 0 1 10 10v10a10 10 0 0 0 10 10"></path>
<g>
<path d="M60 61h98"></path>
<path d="M298 61h98"></path>
<rect x="158" y="50" width="140" height="22"></rect>
<text x="228" y="65">TableValuedCall</text>
</g>
<path d="M396 61a10 10 0 0 0 10 -10v-10a10 10 0 0 1 10 -10"></path>
</g>
<path d="M 416 31 h 20 m -10 -10 v 20 m 10 -20 v 20"></path>
</g>
</svg>
