<svg xmlns:xlink="http://www.w3.org/1999/xlink" xmlns="http://www.w3.org/2000/svg" class="railroad-diagram" width="337" height="132" viewBox="0 0 337 132">
<style>
svg.railroad-diagram {
  background-color: hsl(30,20%,95%);
}
svg.railroad-diagram path {
  stroke-width: 3;
  stroke: black;
  fill: rgba(0,0,0,0);
}
svg.railroad-diagram text {
  font: bold 14px monospace;
  text-anchor: middle;
}
svg.railroad-diagram text.label {
  text-anchor: start;
}
svg.railroad-diagram text.comment {
  font: italic 12px monospace;
}
svg.railroad-diagram rect {
  stroke-width: 3;
  stroke: black;
  fill: hsl(120,100%,90%);
}
svg.railroad-diagram a text {
  fill: #2563eb;
}
svg.railroad-diagram a:hover rect {
  fill: hsl(210,100%,90%);
}
</style>

<g transform="translate(.5 .5)">
<path d="M 20 31 v 20 m 10 -20 v 20 m -10 -10 h 20.5"></path>
<path d="M40 41h10"></path>
<g>
<path d="M50 41h0"></path>
<path d="M286 41h0"></path>
<path d="M50 41h10"></path>
<g>
<path d="M60 41h0"></path>
<path d="M276 41h0"></path>
<path d="M60 41h10"></path>
<g>
<path d="M70 41h0"></path>
<path d="M266 41h0"></path>
<g>
<path d="M70 41h0"></path>
<path d="M154 41h0"></path>
<path d="M70 41a10 10 0 0 0 10 -10v0a10 10 0 0 1 10 -10"></path>
<g>
<path d="M90 21h44"></path>
</g>
<path d="M134 21a10 10 0 0 1 10 10v0a10 10 0 0 0 10 10"></path>
<path d="M70 41h20"></path>
<g>
<path d="M90 41h0"></path>
<path d="M134 41h0"></path>
<rect x="90" y="30" width="44" height="22" rx="10" ry="10"></rect>
<text x="112" y="45">NOT</text>
</g>
<path d="M134 41h20"></path>
</g>
<path d="M154 41h10"></path>
<g>
<path d="M164 41h0"></path>
<path d="M256 41h0"></path>
<rect x="164" y="30" width="92" height="22"></rect>
<text x="210" y="45">WhereAtom</text>
</g>
<path d="M256 41h10"></path>
</g>
<path d="M266 41h10"></path>
<path d="M70 41a10 10 0 0 0 -10 10v10a10 10 0 0 0 10 10"></path>
<g>
<path d="M70 71h76"></path>
<path d="M190 71h76"></path>
<rect x="146" y="60" width="44" height="22" rx="10" ry="10"></rect>
<text x="168" y="75">AND</text>
</g>
<path d="M266 71a10 10 0 0 0 10 -10v-10a10 10 0 0 0 -10 -10"></path>
</g>
<path d="M276 41h10"></path>
<path d="M60 41a10 10 0 0 0 -10 10v40a10 10 0 0 0 10 10"></path>
<g>
<path d="M60 101h90"></path>
<path d="M186 101h90"></path>
<rect x="150" y="90" width="36" height="22" rx="10" ry="10"></rect>
<text x="168" y="105">OR</text>
</g>
<path d="M276 101a10 10 0 0 0 10 -10v-40a10 10 0 0 0 -10 -10"></path>
</g>
<path d="M286 41h10"></path>
<path d="M 296 41 h 20 m -10 -10 v 20 m 10 -20 v 20"></path>
</g>
</svg>
