<svg xmlns:xlink="http://www.w3.org/1999/xlink" xmlns="http://www.w3.org/2000/svg" class="railroad-diagram" width="473" height="162" viewBox="0 0 473 162">
<style>
svg.railroad-diagram {
  background-color: hsl(30,20%,95%);
}
svg.railroad-diagram path {
  stroke-width: 3;
  stroke: black;
  fill: rgba(0,0,0,0);
}
svg.railroad-diagram text {
  font: bold 14px monospace;
  text-anchor: middle;
}
svg.railroad-diagram text.label {
  text-anchor: start;
}
svg.railroad-diagram text.comment {
  font: italic 12px monospace;
}
svg.railroad-diagram rect {
  stroke-width: 3;
  stroke: black;
  fill: hsl(120,100%,90%);
}
svg.railroad-diagram a text {
  fill: #2563eb;
}
svg.railroad-diagram a:hover rect {
  fill: hsl(210,100%,90%);
}
</style>

<g transform="translate(.5 .5)">
<path d="M 20 31 v 20 m 10 -20 v 20 m -10 -10 h 20.5"></path>
<path d="M40 41h10"></path>
<g>
<path d="M50 41h0"></path>
<path d="M422 41h0"></path>
<path d="M50 41h10"></path>
<g>
<path d="M60 41h0"></path>
<path d="M412 41h0"></path>
<path d="M60 41h10"></path>
<g>
<path d="M70 41h0"></path>
<path d="M402 41h0"></path>
<g>
<path d="M70 41h0"></path>
<path d="M154 41h0"></path>
<path d="M70 41a10 10 0 0 0 10 -10v0a10 10 0 0 1 10 -10"></path>
<g>
<path d="M90 21h44"></path>
</g>
<path d="M134 21a10 10 0 0 1 10 10v0a10 10 0 0 0 10 10"></path>
<path d="M70 41h20"></path>
<g>
<path d="M90 41h0"></path>
<path d="M134 41h0"></path>
<rect x="90" y="30" width="44" height="22" rx="10" ry="10"></rect>
<text x="112" y="45">NOT</text>
</g>
<path d="M134 41h20"></path>
</g>
<g>
<path d="M154 41h0"></path>
<path d="M402 41h0"></path>
<path d="M154 41h20"></path>
<g>
<path d="M174 41h58"></path>
<path d="M324 41h58"></path>
<rect x="232" y="30" width="92" height="22"></rect>
<text x="278" y="45">Predicate</text>
</g>
<path d="M382 41h20"></path>
<path d="M154 41a10 10 0 0 1 10 10v10a10 10 0 0 0 10 10"></path>
<g>
<path d="M174 71h0"></path>
<path d="M382 71h0"></path>
<path d="M174 71h10"></path>
<g>
<path d="M184 71h0"></path>
<path d="M212 71h0"></path>
<rect x="184" y="60" width="28" height="22" rx="10" ry="10"></rect>
<text x="198" y="75">(</text>
</g>
<path d="M212 71h10"></path>
<path d="M222 71h10"></path>
<g>
<path d="M232 71h0"></path>
<path d="M324 71h0"></path>
<rect x="232" y="60" width="92" height="22"></rect>
<text x="278" y="75">MatchExpr</text>
</g>
<path d="M324 71h10"></path>
<path d="M334 71h10"></path>
<g>
<path d="M344 71h0"></path>
<path d="M372 71h0"></path>
<rect x="344" y="60" width="28" height="22" rx="10" ry="10"></rect>
<text x="358" y="75">)</text>
</g>
<path d="M372 71h10"></path>
</g>
<path d="M382 71a10 10 0 0 0 10 -10v-10a10 10 0 0 1 10 -10"></path>
</g>
</g>
<path d="M402 41h10"></path>
<path d="M70 41a10 10 0 0 0 -10 10v40a10 10 0 0 0 10 10"></path>
<g>
<path d="M70 101h144"></path>
<path d="M258 101h144"></path>
<rect x="214" y="90" width="44" height="22" rx="10" ry="10"></rect>
<text x="236" y="105">AND</text>
</g>
<path d="M402 101a10 10 0 0 0 10 -10v-40a10 10 0 0 0 -10 -10"></path>
</g>
<path d="M412 41h10"></path>
<path d="M60 41a10 10 0 0 0 -10 10v70a10 10 0 0 0 10 10"></path>
<g>
<path d="M60 131h158"></path>
<path d="M254 131h158"></path>
<rect x="218" y="120" width="36" height="22" rx="10" ry="10"></rect>
<text x="236" y="135">OR</text>
</g>
<path d="M412 131a10 10 0 0 0 10 -10v-70a10 10 0 0 0 -10 -10"></path>
</g>
<path d="M422 41h10"></path>
<path d="M 432 41 h 20 m -10 -10 v 20 m 10 -20 v 20"></path>
</g>
</svg>
