<svg xmlns:xlink="http://www.w3.org/1999/xlink" xmlns="http://www.w3.org/2000/svg" class="railroad-diagram" width="965" height="102" viewBox="0 0 965 102">
<style>
svg.railroad-diagram {
  background-color: hsl(30,20%,95%);
}
svg.railroad-diagram path {
  stroke-width: 3;
  stroke: black;
  fill: rgba(0,0,0,0);
}
svg.railroad-diagram text {
  font: bold 14px monospace;
  text-anchor: middle;
}
svg.railroad-diagram text.label {
  text-anchor: start;
}
svg.railroad-diagram text.comment {
  font: italic 12px monospace;
}
svg.railroad-diagram rect {
  stroke-width: 3;
  stroke: black;
  fill: hsl(120,100%,90%);
}
svg.railroad-diagram a text {
  fill: #2563eb;
}
svg.railroad-diagram a:hover rect {
  fill: hsl(210,100%,90%);
}
</style>

<g transform="translate(.5 .5)">
<path d="M 20 31 v 20 m 10 -20 v 20 m -10 -10 h 20.5"></path>
<g>
<path d="M40 41h0"></path>
<path d="M924 41h0"></path>
<path d="M40 41h10"></path>
<g>
<path d="M50 41h0"></path>
<path d="M118 41h0"></path>
<rect x="50" y="30" width="68" height="22" rx="10" ry="10"></rect>
<text x="84" y="45">SELECT</text>
</g>
<path d="M118 41h10"></path>
<path d="M128 41h10"></path>
<g>
<path d="M138 41h0"></path>
<path d="M258 41h0"></path>
<path d="M138 41h10"></path>
<g>
<path d="M148 41h0"></path>
<path d="M248 41h0"></path>
<rect x="148" y="30" width="100" height="22"></rect>
<text x="198" y="45">SelectItem</text>
</g>
<path d="M248 41h10"></path>
<path d="M148 41a10 10 0 0 0 -10 10v10a10 10 0 0 0 10 10"></path>
<g>
<path d="M148 71h36"></path>
<path d="M212 71h36"></path>
<rect x="184" y="60" width="28" height="22" rx="10" ry="10"></rect>
<text x="198" y="75">,</text>
</g>
<path d="M248 71a10 10 0 0 0 10 -10v-10a10 10 0 0 0 -10 -10"></path>
</g>
<path d="M258 41h10"></path>
<path d="M268 41h10"></path>
<g>
<path d="M278 41h0"></path>
<path d="M330 41h0"></path>
<rect x="278" y="30" width="52" height="22" rx="10" ry="10"></rect>
<text x="304" y="45">FROM</text>
</g>
<path d="M330 41h10"></path>
<path d="M340 41h10"></path>
<g>
<path d="M350 41h0"></path>
<path d="M466 41h0"></path>
<rect x="350" y="30" width="116" height="22"></rect>
<text x="408" y="45">JsonEachCall</text>
</g>
<path d="M466 41h10"></path>
<g>
<path d="M476 41h0"></path>
<path d="M692 41h0"></path>
<path d="M476 41a10 10 0 0 0 10 -10v0a10 10 0 0 1 10 -10"></path>
<g>
<path d="M496 21h176"></path>
</g>
<path d="M672 21a10 10 0 0 1 10 10v0a10 10 0 0 0 10 10"></path>
<path d="M476 41h20"></path>
<g>
<path d="M496 41h0"></path>
<path d="M672 41h0"></path>
<path d="M496 41h10"></path>
<g>
<path d="M506 41h0"></path>
<path d="M542 41h0"></path>
<rect x="506" y="30" width="36" height="22" rx="10" ry="10"></rect>
<text x="524" y="45">AS</text>
</g>
<path d="M542 41h10"></path>
<path d="M552 41h10"></path>
<g>
<path d="M562 41h0"></path>
<path d="M662 41h0"></path>
<rect x="562" y="30" width="100" height="22"></rect>
<text x="612" y="45">Identifier</text>
</g>
<path d="M662 41h10"></path>
</g>
<path d="M672 41h20"></path>
</g>
<g>
<path d="M692 41h0"></path>
<path d="M924 41h0"></path>
<path d="M692 41a10 10 0 0 0 10 -10v0a10 10 0 0 1 10 -10"></path>
<g>
<path d="M712 21h192"></path>
</g>
<path d="M904 21a10 10 0 0 1 10 10v0a10 10 0 0 0 10 10"></path>
<path d="M692 41h20"></path>
<g>
<path d="M712 41h0"></path>
<path d="M904 41h0"></path>
<path d="M712 41h10"></path>
<g>
<path d="M722 41h0"></path>
<path d="M782 41h0"></path>
<rect x="722" y="30" width="60" height="22" rx="10" ry="10"></rect>
<text x="752" y="45">WHERE</text>
</g>
<path d="M782 41h10"></path>
<path d="M792 41h10"></path>
<g>
<path d="M802 41h0"></path>
<path d="M894 41h0"></path>
<rect x="802" y="30" width="92" height="22"></rect>
<text x="848" y="45">MatchExpr</text>
</g>
<path d="M894 41h10"></path>
</g>
<path d="M904 41h20"></path>
</g>
</g>
<path d="M 924 41 h 20 m -10 -10 v 20 m 10 -20 v 20"></path>
</g>
</svg>
