<svg xmlns:xlink="http://www.w3.org/1999/xlink" xmlns="http://www.w3.org/2000/svg" class="railroad-diagram" width="781" height="132" viewBox="0 0 781 132">
<style>
svg.railroad-diagram {
  background-color: hsl(30,20%,95%);
}
svg.railroad-diagram path {
  stroke-width: 3;
  stroke: black;
  fill: rgba(0,0,0,0);
}
svg.railroad-diagram text {
  font: bold 14px monospace;
  text-anchor: middle;
}
svg.railroad-diagram text.label {
  text-anchor: start;
}
svg.railroad-diagram text.comment {
  font: italic 12px monospace;
}
svg.railroad-diagram rect {
  stroke-width: 3;
  stroke: black;
  fill: hsl(120,100%,90%);
}
svg.railroad-diagram a text {
  fill: #2563eb;
}
svg.railroad-diagram a:hover rect {
  fill: hsl(210,100%,90%);
}
</style>

<g transform="translate(.5 .5)">
<path d="M 20 31 v 20 m 10 -20 v 20 m -10 -10 h 20.5"></path>
<g>
<path d="M40 41h0"></path>
<path d="M740 41h0"></path>
<path d="M40 41h10"></path>
<g>
<path d="M50 41h0"></path>
<path d="M118 41h0"></path>
<rect x="50" y="30" width="68" height="22" rx="10" ry="10"></rect>
<text x="84" y="45">SELECT</text>
</g>
<path d="M118 41h10"></path>
<path d="M128 41h10"></path>
<g>
<path d="M138 41h0"></path>
<path d="M298 41h0"></path>
<path d="M138 41h10"></path>
<g>
<path d="M148 41h0"></path>
<path d="M288 41h0"></path>
<path d="M148 41h20"></path>
<g>
<path d="M168 41h36"></path>
<path d="M232 41h36"></path>
<rect x="204" y="30" width="28" height="22" rx="10" ry="10"></rect>
<text x="218" y="45">&#42;</text>
</g>
<path d="M268 41h20"></path>
<path d="M148 41a10 10 0 0 1 10 10v10a10 10 0 0 0 10 10"></path>
<g>
<path d="M168 71h0"></path>
<path d="M268 71h0"></path>
<rect x="168" y="60" width="100" height="22"></rect>
<text x="218" y="75">SelectItem</text>
</g>
<path d="M268 71a10 10 0 0 0 10 -10v-10a10 10 0 0 1 10 -10"></path>
</g>
<path d="M288 41h10"></path>
<path d="M148 41a10 10 0 0 0 -10 10v40a10 10 0 0 0 10 10"></path>
<g>
<path d="M148 101h56"></path>
<path d="M232 101h56"></path>
<rect x="204" y="90" width="28" height="22" rx="10" ry="10"></rect>
<text x="218" y="105">,</text>
</g>
<path d="M288 101a10 10 0 0 0 10 -10v-40a10 10 0 0 0 -10 -10"></path>
</g>
<path d="M298 41h10"></path>
<path d="M308 41h10"></path>
<g>
<path d="M318 41h0"></path>
<path d="M370 41h0"></path>
<rect x="318" y="30" width="52" height="22" rx="10" ry="10"></rect>
<text x="344" y="45">FROM</text>
</g>
<path d="M370 41h10"></path>
<path d="M380 41h10"></path>
<g>
<path d="M390 41h0"></path>
<path d="M482 41h0"></path>
<rect x="390" y="30" width="92" height="22"></rect>
<text x="436" y="45">Reference</text>
</g>
<path d="M482 41h10"></path>
<g>
<path d="M492 41h0"></path>
<path d="M740 41h0"></path>
<path d="M492 41a10 10 0 0 0 10 -10v0a10 10 0 0 1 10 -10"></path>
<g>
<path d="M512 21h208"></path>
</g>
<path d="M720 21a10 10 0 0 1 10 10v0a10 10 0 0 0 10 10"></path>
<path d="M492 41h20"></path>
<g>
<path d="M512 41h0"></path>
<path d="M720 41h0"></path>
<path d="M512 41h10"></path>
<g>
<path d="M522 41h0"></path>
<path d="M582 41h0"></path>
<rect x="522" y="30" width="60" height="22" rx="10" ry="10"></rect>
<text x="552" y="45">WHERE</text>
</g>
<path d="M582 41h10"></path>
<path d="M592 41h10"></path>
<g>
<path d="M602 41h0"></path>
<path d="M710 41h0"></path>
<rect x="602" y="30" width="108" height="22"></rect>
<text x="656" y="45">WhereClause</text>
</g>
<path d="M710 41h10"></path>
</g>
<path d="M720 41h20"></path>
</g>
</g>
<path d="M 740 41 h 20 m -10 -10 v 20 m 10 -20 v 20"></path>
</g>
</svg>
