<svg xmlns:xlink="http://www.w3.org/1999/xlink" xmlns="http://www.w3.org/2000/svg" class="railroad-diagram" width="493" height="192" viewBox="0 0 493 192">
<style>
svg.railroad-diagram {
  background-color: hsl(30,20%,95%);
}
svg.railroad-diagram path {
  stroke-width: 3;
  stroke: black;
  fill: rgba(0,0,0,0);
}
svg.railroad-diagram text {
  font: bold 14px monospace;
  text-anchor: middle;
}
svg.railroad-diagram text.label {
  text-anchor: start;
}
svg.railroad-diagram text.comment {
  font: italic 12px monospace;
}
svg.railroad-diagram rect {
  stroke-width: 3;
  stroke: black;
  fill: hsl(120,100%,90%);
}
svg.railroad-diagram a text {
  fill: #2563eb;
}
svg.railroad-diagram a:hover rect {
  fill: hsl(210,100%,90%);
}
</style>

<g transform="translate(.5 .5)">
<path d="M 20 21 v 20 m 10 -20 v 20 m -10 -10 h 20.5"></path>
<g>
<path d="M40 31h0"></path>
<path d="M452 31h0"></path>
<path d="M40 31h20"></path>
<g>
<path d="M60 31h0"></path>
<path d="M432 31h0"></path>
<path d="M60 31h10"></path>
<g>
<path d="M70 31h0"></path>
<path d="M170 31h0"></path>
<rect x="70" y="20" width="100" height="22"></rect>
<text x="120" y="35">Expression</text>
</g>
<path d="M170 31h10"></path>
<g>
<path d="M180 31h0"></path>
<path d="M432 31h0"></path>
<path d="M180 31h20"></path>
<g>
<path d="M200 31h22"></path>
<path d="M390 31h22"></path>
<path d="M222 31h10"></path>
<g>
<path d="M232 31h0"></path>
<path d="M260 31h0"></path>
<rect x="232" y="20" width="28" height="22" rx="10" ry="10"></rect>
<text x="246" y="35">=</text>
</g>
<path d="M260 31h10"></path>
<path d="M270 31h10"></path>
<g>
<path d="M280 31h0"></path>
<path d="M380 31h0"></path>
<rect x="280" y="20" width="100" height="22"></rect>
<text x="330" y="35">Expression</text>
</g>
<path d="M380 31h10"></path>
</g>
<path d="M412 31h20"></path>
<path d="M180 31a10 10 0 0 1 10 10v10a10 10 0 0 0 10 10"></path>
<g>
<path d="M200 61h18"></path>
<path d="M394 61h18"></path>
<path d="M218 61h10"></path>
<g>
<path d="M228 61h0"></path>
<path d="M264 61h0"></path>
<rect x="228" y="50" width="36" height="22" rx="10" ry="10"></rect>
<text x="246" y="65">IN</text>
</g>
<path d="M264 61h10"></path>
<path d="M274 61h10"></path>
<g>
<path d="M284 61h0"></path>
<path d="M384 61h0"></path>
<rect x="284" y="50" width="100" height="22"></rect>
<text x="334" y="65">Expression</text>
</g>
<path d="M384 61h10"></path>
</g>
<path d="M412 61a10 10 0 0 0 10 -10v-10a10 10 0 0 1 10 -10"></path>
<path d="M180 31a10 10 0 0 1 10 10v40a10 10 0 0 0 10 10"></path>
<g>
<path d="M200 91h18"></path>
<path d="M394 91h18"></path>
<path d="M218 91h10"></path>
<g>
<path d="M228 91h0"></path>
<path d="M264 91h0"></path>
<rect x="228" y="80" width="36" height="22" rx="10" ry="10"></rect>
<text x="246" y="95">&#38;&#38;</text>
</g>
<path d="M264 91h10"></path>
<path d="M274 91h10"></path>
<g>
<path d="M284 91h0"></path>
<path d="M384 91h0"></path>
<rect x="284" y="80" width="100" height="22"></rect>
<text x="334" y="95">Expression</text>
</g>
<path d="M384 91h10"></path>
</g>
<path d="M412 91a10 10 0 0 0 10 -10v-40a10 10 0 0 1 10 -10"></path>
<path d="M180 31a10 10 0 0 1 10 10v80a10 10 0 0 0 10 10"></path>
<g>
<path d="M200 131h0"></path>
<path d="M412 131h0"></path>
<path d="M200 131h10"></path>
<g>
<path d="M210 131h0"></path>
<path d="M246 131h0"></path>
<rect x="210" y="120" width="36" height="22" rx="10" ry="10"></rect>
<text x="228" y="135">IS</text>
</g>
<path d="M246 131h10"></path>
<g>
<path d="M256 131h0"></path>
<path d="M340 131h0"></path>
<path d="M256 131a10 10 0 0 0 10 -10v0a10 10 0 0 1 10 -10"></path>
<g>
<path d="M276 111h44"></path>
</g>
<path d="M320 111a10 10 0 0 1 10 10v0a10 10 0 0 0 10 10"></path>
<path d="M256 131h20"></path>
<g>
<path d="M276 131h0"></path>
<path d="M320 131h0"></path>
<rect x="276" y="120" width="44" height="22" rx="10" ry="10"></rect>
<text x="298" y="135">NOT</text>
</g>
<path d="M320 131h20"></path>
</g>
<path d="M340 131h10"></path>
<g>
<path d="M350 131h0"></path>
<path d="M402 131h0"></path>
<rect x="350" y="120" width="52" height="22" rx="10" ry="10"></rect>
<text x="376" y="135">NULL</text>
</g>
<path d="M402 131h10"></path>
</g>
<path d="M412 131a10 10 0 0 0 10 -10v-80a10 10 0 0 1 10 -10"></path>
</g>
</g>
<path d="M432 31h20"></path>
<path d="M40 31a10 10 0 0 1 10 10v110a10 10 0 0 0 10 10"></path>
<g>
<path d="M60 161h136"></path>
<path d="M296 161h136"></path>
<rect x="196" y="150" width="100" height="22"></rect>
<text x="246" y="165">Expression</text>
</g>
<path d="M432 161a10 10 0 0 0 10 -10v-110a10 10 0 0 1 10 -10"></path>
</g>
<path d="M 452 31 h 20 m -10 -10 v 20 m 10 -20 v 20"></path>
</g>
</svg>
