<svg xmlns:xlink="http://www.w3.org/1999/xlink" xmlns="http://www.w3.org/2000/svg" class="railroad-diagram" width="409" height="62" viewBox="0 0 409 62">
<style>
svg.railroad-diagram {
  background-color: hsl(30,20%,95%);
}
svg.railroad-diagram path {
  stroke-width: 3;
  stroke: black;
  fill: rgba(0,0,0,0);
}
svg.railroad-diagram text {
  font: bold 14px monospace;
  text-anchor: middle;
}
svg.railroad-diagram text.label {
  text-anchor: start;
}
svg.railroad-diagram text.comment {
  font: italic 12px monospace;
}
svg.railroad-diagram rect {
  stroke-width: 3;
  stroke: black;
  fill: hsl(120,100%,90%);
}
svg.railroad-diagram a text {
  fill: #2563eb;
}
svg.railroad-diagram a:hover rect {
  fill: hsl(210,100%,90%);
}
</style>

<g transform="translate(.5 .5)">
<path d="M 20 21 v 20 m 10 -20 v 20 m -10 -10 h 20.5"></path>
<g>
<path d="M40 31h0"></path>
<path d="M368 31h0"></path>
<path d="M40 31h10"></path>
<g>
<path d="M50 31h0"></path>
<path d="M142 31h0"></path>
<rect x="50" y="20" width="92" height="22" rx="10" ry="10"></rect>
<text x="96" y="35">JSON&#95;EACH</text>
</g>
<path d="M142 31h10"></path>
<path d="M152 31h10"></path>
<g>
<path d="M162 31h0"></path>
<path d="M190 31h0"></path>
<rect x="162" y="20" width="28" height="22" rx="10" ry="10"></rect>
<text x="176" y="35">(</text>
</g>
<path d="M190 31h10"></path>
<path d="M200 31h10"></path>
<g>
<path d="M210 31h0"></path>
<path d="M310 31h0"></path>
<rect x="210" y="20" width="100" height="22"></rect>
<text x="260" y="35">Expression</text>
</g>
<path d="M310 31h10"></path>
<path d="M320 31h10"></path>
<g>
<path d="M330 31h0"></path>
<path d="M358 31h0"></path>
<rect x="330" y="20" width="28" height="22" rx="10" ry="10"></rect>
<text x="344" y="35">)</text>
</g>
<path d="M358 31h10"></path>
</g>
<path d="M 368 31 h 20 m -10 -10 v 20 m 10 -20 v 20"></path>
</g>
</svg>
