<svg xmlns:xlink="http://www.w3.org/1999/xlink" xmlns="http://www.w3.org/2000/svg" class="railroad-diagram" width="829" height="91" viewBox="0 0 829 91">
<style>
svg.railroad-diagram {
  background-color: hsl(30,20%,95%);
}
svg.railroad-diagram path {
  stroke-width: 3;
  stroke: black;
  fill: rgba(0,0,0,0);
}
svg.railroad-diagram text {
  font: bold 14px monospace;
  text-anchor: middle;
}
svg.railroad-diagram text.label {
  text-anchor: start;
}
svg.railroad-diagram text.comment {
  font: italic 12px monospace;
}
svg.railroad-diagram rect {
  stroke-width: 3;
  stroke: black;
  fill: hsl(120,100%,90%);
}
svg.railroad-diagram a text {
  fill: #2563eb;
}
svg.railroad-diagram a:hover rect {
  fill: hsl(210,100%,90%);
}
</style>

<g transform="translate(.5 .5)">
<path d="M 20 41 v 20 m 10 -20 v 20 m -10 -10 h 20.5"></path>
<g>
<path d="M40 51h0"></path>
<path d="M788 51h0"></path>
<g>
<path d="M40 51h0"></path>
<path d="M324 51h0"></path>
<path d="M40 51h10"></path>
<g>
<path d="M50 51h0"></path>
<path d="M158 51h0"></path>
<rect x="50" y="40" width="108" height="22"></rect>
<text x="104" y="55">PrimaryTerm</text>
</g>
<path d="M158 51h10"></path>
<g>
<path d="M168 51h0"></path>
<path d="M324 51h0"></path>
<path d="M168 51a10 10 0 0 0 10 -10v0a10 10 0 0 1 10 -10"></path>
<g>
<path d="M188 31h116"></path>
</g>
<path d="M304 31a10 10 0 0 1 10 10v0a10 10 0 0 0 10 10"></path>
<path d="M168 51h20"></path>
<g>
<path d="M188 51h0"></path>
<path d="M304 51h0"></path>
<rect x="188" y="40" width="116" height="22"></rect>
<text x="246" y="55">MemberSuffix</text>
</g>
<path d="M304 51h20"></path>
</g>
</g>
<g>
<path d="M324 51h0"></path>
<path d="M788 51h0"></path>
<path d="M324 51a10 10 0 0 0 10 -10v-9a10 10 0 0 1 10 -10"></path>
<g>
<path d="M344 22h424"></path>
</g>
<path d="M768 22a10 10 0 0 1 10 10v9a10 10 0 0 0 10 10"></path>
<path d="M324 51h20"></path>
<g>
<path d="M344 51h0"></path>
<path d="M768 51h0"></path>
<path d="M344 51h10"></path>
<g>
<path d="M354 51h0"></path>
<path d="M758 51h0"></path>
<path d="M354 51h10"></path>
<g>
<path d="M364 51h0"></path>
<path d="M464 51h0"></path>
<rect x="364" y="40" width="100" height="22" rx="10" ry="10"></rect>
<text x="414" y="55">«operator»</text>
</g>
<path d="M464 51h10"></path>
<g>
<path d="M474 51h0"></path>
<path d="M758 51h0"></path>
<path d="M474 51h10"></path>
<g>
<path d="M484 51h0"></path>
<path d="M592 51h0"></path>
<rect x="484" y="40" width="108" height="22"></rect>
<text x="538" y="55">PrimaryTerm</text>
</g>
<path d="M592 51h10"></path>
<g>
<path d="M602 51h0"></path>
<path d="M758 51h0"></path>
<path d="M602 51a10 10 0 0 0 10 -10v0a10 10 0 0 1 10 -10"></path>
<g>
<path d="M622 31h116"></path>
</g>
<path d="M738 31a10 10 0 0 1 10 10v0a10 10 0 0 0 10 10"></path>
<path d="M602 51h20"></path>
<g>
<path d="M622 51h0"></path>
<path d="M738 51h0"></path>
<rect x="622" y="40" width="116" height="22"></rect>
<text x="680" y="55">MemberSuffix</text>
</g>
<path d="M738 51h20"></path>
</g>
</g>
</g>
<path d="M758 51h10"></path>
<path d="M354 51a10 10 0 0 0 -10 10v0a10 10 0 0 0 10 10"></path>
<g>
<path d="M354 71h404"></path>
</g>
<path d="M758 71a10 10 0 0 0 10 -10v0a10 10 0 0 0 -10 -10"></path>
</g>
<path d="M768 51h20"></path>
</g>
</g>
<path d="M 788 51 h 20 m -10 -10 v 20 m 10 -20 v 20"></path>
</g>
</svg>
