<svg xmlns:xlink="http://www.w3.org/1999/xlink" xmlns="http://www.w3.org/2000/svg" class="railroad-diagram" width="449" height="102" viewBox="0 0 449 102">
<style>
svg.railroad-diagram {
  background-color: hsl(30,20%,95%);
}
svg.railroad-diagram path {
  stroke-width: 3;
  stroke: black;
  fill: rgba(0,0,0,0);
}
svg.railroad-diagram text {
  font: bold 14px monospace;
  text-anchor: middle;
}
svg.railroad-diagram text.label {
  text-anchor: start;
}
svg.railroad-diagram text.comment {
  font: italic 12px monospace;
}
svg.railroad-diagram rect {
  stroke-width: 3;
  stroke: black;
  fill: hsl(120,100%,90%);
}
svg.railroad-diagram a text {
  fill: #2563eb;
}
svg.railroad-diagram a:hover rect {
  fill: hsl(210,100%,90%);
}
</style>

<g transform="translate(.5 .5)">
<path d="M 20 31 v 20 m 10 -20 v 20 m -10 -10 h 20.5"></path>
<g>
<path d="M40 41h0"></path>
<path d="M408 41h0"></path>
<path d="M40 41h10"></path>
<g>
<path d="M50 41h0"></path>
<path d="M142 41h0"></path>
<rect x="50" y="30" width="92" height="22"></rect>
<text x="96" y="45">Reference</text>
</g>
<path d="M142 41h10"></path>
<path d="M152 41h10"></path>
<g>
<path d="M162 41h0"></path>
<path d="M190 41h0"></path>
<rect x="162" y="30" width="28" height="22" rx="10" ry="10"></rect>
<text x="176" y="45">(</text>
</g>
<path d="M190 41h10"></path>
<g>
<path d="M200 41h0"></path>
<path d="M360 41h0"></path>
<path d="M200 41a10 10 0 0 0 10 -10v0a10 10 0 0 1 10 -10"></path>
<g>
<path d="M220 21h120"></path>
</g>
<path d="M340 21a10 10 0 0 1 10 10v0a10 10 0 0 0 10 10"></path>
<path d="M200 41h20"></path>
<g>
<path d="M220 41h0"></path>
<path d="M340 41h0"></path>
<path d="M220 41h10"></path>
<g>
<path d="M230 41h0"></path>
<path d="M330 41h0"></path>
<rect x="230" y="30" width="100" height="22"></rect>
<text x="280" y="45">Expression</text>
</g>
<path d="M330 41h10"></path>
<path d="M230 41a10 10 0 0 0 -10 10v10a10 10 0 0 0 10 10"></path>
<g>
<path d="M230 71h36"></path>
<path d="M294 71h36"></path>
<rect x="266" y="60" width="28" height="22" rx="10" ry="10"></rect>
<text x="280" y="75">,</text>
</g>
<path d="M330 71a10 10 0 0 0 10 -10v-10a10 10 0 0 0 -10 -10"></path>
</g>
<path d="M340 41h20"></path>
</g>
<path d="M360 41h10"></path>
<g>
<path d="M370 41h0"></path>
<path d="M398 41h0"></path>
<rect x="370" y="30" width="28" height="22" rx="10" ry="10"></rect>
<text x="384" y="45">)</text>
</g>
<path d="M398 41h10"></path>
</g>
<path d="M 408 41 h 20 m -10 -10 v 20 m 10 -20 v 20"></path>
</g>
</svg>
