<svg xmlns:xlink="http://www.w3.org/1999/xlink" xmlns="http://www.w3.org/2000/svg" class="railroad-diagram" width="557" height="102" viewBox="0 0 557 102">
<style>
svg.railroad-diagram {
  background-color: hsl(30,20%,95%);
}
svg.railroad-diagram path {
  stroke-width: 3;
  stroke: black;
  fill: rgba(0,0,0,0);
}
svg.railroad-diagram text {
  font: bold 14px monospace;
  text-anchor: middle;
}
svg.railroad-diagram text.label {
  text-anchor: start;
}
svg.railroad-diagram text.comment {
  font: italic 12px monospace;
}
svg.railroad-diagram rect {
  stroke-width: 3;
  stroke: black;
  fill: hsl(120,100%,90%);
}
svg.railroad-diagram a text {
  fill: #2563eb;
}
svg.railroad-diagram a:hover rect {
  fill: hsl(210,100%,90%);
}
</style>

<g transform="translate(.5 .5)">
<path d="M 20 31 v 20 m 10 -20 v 20 m -10 -10 h 20.5"></path>
<g>
<path d="M40 41h0"></path>
<path d="M516 41h0"></path>
<path d="M40 41h10"></path>
<g>
<path d="M50 41h0"></path>
<path d="M118 41h0"></path>
<rect x="50" y="30" width="68" height="22" rx="10" ry="10"></rect>
<text x="84" y="45">SELECT</text>
</g>
<path d="M118 41h10"></path>
<path d="M128 41h10"></path>
<g>
<path d="M138 41h0"></path>
<path d="M258 41h0"></path>
<path d="M138 41h10"></path>
<g>
<path d="M148 41h0"></path>
<path d="M248 41h0"></path>
<rect x="148" y="30" width="100" height="22"></rect>
<text x="198" y="45">SelectItem</text>
</g>
<path d="M248 41h10"></path>
<path d="M148 41a10 10 0 0 0 -10 10v10a10 10 0 0 0 10 10"></path>
<g>
<path d="M148 71h36"></path>
<path d="M212 71h36"></path>
<rect x="184" y="60" width="28" height="22" rx="10" ry="10"></rect>
<text x="198" y="75">,</text>
</g>
<path d="M248 71a10 10 0 0 0 10 -10v-10a10 10 0 0 0 -10 -10"></path>
</g>
<path d="M258 41h10"></path>
<g>
<path d="M268 41h0"></path>
<path d="M516 41h0"></path>
<path d="M268 41a10 10 0 0 0 10 -10v0a10 10 0 0 1 10 -10"></path>
<g>
<path d="M288 21h208"></path>
</g>
<path d="M496 21a10 10 0 0 1 10 10v0a10 10 0 0 0 10 10"></path>
<path d="M268 41h20"></path>
<g>
<path d="M288 41h0"></path>
<path d="M496 41h0"></path>
<path d="M288 41h10"></path>
<g>
<path d="M298 41h0"></path>
<path d="M358 41h0"></path>
<rect x="298" y="30" width="60" height="22" rx="10" ry="10"></rect>
<text x="328" y="45">WHERE</text>
</g>
<path d="M358 41h10"></path>
<path d="M368 41h10"></path>
<g>
<path d="M378 41h0"></path>
<path d="M486 41h0"></path>
<rect x="378" y="30" width="108" height="22"></rect>
<text x="432" y="45">WhereClause</text>
</g>
<path d="M486 41h10"></path>
</g>
<path d="M496 41h20"></path>
</g>
</g>
<path d="M 516 41 h 20 m -10 -10 v 20 m 10 -20 v 20"></path>
</g>
</svg>
